<?xml version="1.0" encoding="UTF-8"?>
<svg id="Camada_1" xmlns="http://www.w3.org/2000/svg" xmlns:xlink="http://www.w3.org/1999/xlink" version="1.1" viewBox="0 0 940.01 940.01">
  <!-- Generator: Adobe Illustrator 29.1.0, SVG Export Plug-In . SVG Version: 2.1.0 Build 142)  -->
  <defs>
    <style>
      .st0 {
        fill: none;
      }

      .st1 {
        fill: #b42521;
      }

      .st2 {
        fill: #f7f4e8;
      }

      .st3 {
        clip-path: url(#clippath);
      }
    </style>
    <clipPath id="clippath">
      <rect class="st0" width="940.01" height="940.01"/>
    </clipPath>
  </defs>
  <g class="st3">
    <rect class="st1" width="940.01" height="940.01"/>
    <g>
      <path class="st2" d="M-157.85,590.75c67.72,0,91.37-73.09,91.37-115.01V22.13c0-62.34-36.55-107.49-91.37-111.79v-19.35H186.12c66.65,0,122.54,8.6,164.46,26.87,62.34,27.95,95.67,88.14,95.67,148.34,0,72.02-50.52,144.04-160.16,152.64,59.12,4.3,107.49,15.05,147.27,48.37,46.22,37.62,64.49,90.29,62.34,156.94-1.07,84.92-58.05,150.49-131.14,171.99-52.67,15.05-92.44,15.05-148.34,15.05H-157.85v-20.42ZM82.93,215.61h55.9c104.26-3.23,160.16-41.92,159.08-141.89-2.15-103.19-46.22-151.56-145.11-155.86-21.5-1.07-40.85-1.07-69.87,0V215.61ZM344.13,431.67c3.23-126.84-63.42-185.96-189.18-189.19-40.84-1.07-41.92-1.07-72.02-1.07v231.11c0,41.92,5.38,112.87,90.29,112.87,68.79,0,168.76-23.65,170.91-153.71Z"/>
      <path class="st2" d="M808.47,85.55c142.96,0,227.88,103.19,223.58,242.93h-361.16c4.29,68.79,30.09,133.29,87.07,177.36,31.17,24.72,75.24,36.55,119.31,36.55,54.82,0,109.64-17.2,146.19-51.59l10.75,7.52c-46.23,76.32-134.37,123.61-246.16,123.61-159.08,0-261.2-108.56-261.2-264.43,0-173.06,110.71-271.95,281.63-271.95ZM899.83,293c0-98.89-47.29-190.26-124.69-180.59-84.91,10.75-105.34,120.39-105.34,190.26v3.22l230.03-12.9Z"/>
    </g>
    <g>
      <path class="st2" d="M-29.97,944.07c.72-21.82,14.31-37.56,29.69-45.79,27.19-14.31,50.44-18.96,75.84-24.68v-2.15c0-20.39,0-52.23-28.26-51.87-22.18.36-25.04,17.89-25.04,37.92v12.52c0,11.81-45.08,15.38-42.57-13.6,2.86-35.77,39.35-44.36,68.69-44.72,31.13-.71,76.2,3.94,76.2,51.16v80.85c0,16.1,10.02,23.97,25.4,16.1l2.14,4.29c-9.3,18.25-23.97,23.61-43.28,23.61-16.1,0-31.48-10.02-33.27-31.12-10.02,18.25-27.19,31.12-58.67,31.12-27.55,0-47.58-15.74-46.87-43.65ZM41.94,967.68c15.38.36,32.2-13.95,33.63-30.05v-56.52c-16.1,5.37-25.4,10.02-36.13,18.96-11.45,9.3-19.68,23.97-20.03,38.99,0,15.74,7.87,28.26,22.54,28.62Z"/>
      <path class="st2" d="M218.69,986.29v-6.8c6.44,0,26.83-8.59,26.83-38.28v-140.95c0-22.18-4.29-33.63-23.61-34.34v-5.01l67.25-25.04h4.65v205.34c0,29.69,20.75,38.28,26.48,38.28v6.8h-101.6Z"/>
      <path class="st2" d="M415.46,811.35c54.37,0,86.93,35.77,86.93,89.44s-35.06,89.44-89.44,89.44-89.44-33.99-89.44-89.44,35.77-89.44,91.94-89.44ZM372.52,894.7c0,28.98,2.51,87.29,42.93,87.29,32.2,0,37.56-52.23,37.56-75.48,0-29.33-2.5-89.08-42.93-86.57-32.56,2.15-37.56,51.16-37.56,74.77Z"/>
      <path class="st2" d="M607.22,811.35c33.62,0,65.47,13.95,67.61,46.15,1.79,30.77-42.93,26.11-42.93,15.74v-14.31c-2.86-30.41-14.31-41.86-35.78-38.99-27.91,3.58-35.06,40.42-35.06,62.96,0,29.69,9.3,52.95,29.33,68.33,10.37,8.23,25.04,12.16,39.71,12.16,18.24,0,36.49-5.72,48.65-17.17l3.58,2.5c-15.38,25.4-44.72,41.14-81.92,41.14-52.95,0-86.93-36.13-86.93-88,0-57.6,36.85-90.51,93.73-90.51Z"/>
      <path class="st2" d="M686.65,944.07c.72-21.82,14.31-37.56,29.69-45.79,27.19-14.31,50.44-18.96,75.84-24.68v-2.15c0-20.39,0-52.23-28.26-51.87-22.18.36-25.04,17.89-25.04,37.92v12.52c0,11.81-45.08,15.38-42.57-13.6,2.86-35.77,39.35-44.36,68.69-44.72,31.13-.71,76.2,3.94,76.2,51.16v80.85c0,16.1,10.02,23.97,25.4,16.1l2.14,4.29c-9.3,18.25-23.97,23.61-43.28,23.61-16.1,0-31.48-10.02-33.27-31.12-10.02,18.25-27.19,31.12-58.67,31.12-27.55,0-47.58-15.74-46.87-43.65ZM758.55,967.68c15.38.36,32.2-13.95,33.63-30.05v-56.52c-16.1,5.37-25.4,10.02-36.13,18.96-11.45,9.3-19.68,23.97-20.03,38.99,0,15.74,7.87,28.26,22.54,28.62Z"/>
      <path class="st2" d="M868.4,986.29v-6.8c6.44,0,26.83-8.59,26.83-38.28v-140.95c0-22.18-4.29-33.63-23.61-34.34v-5.01l67.25-25.04h4.65v205.34c0,29.69,20.75,38.28,26.47,38.28v6.8h-101.6Z"/>
    </g>
  </g>
</svg>