<?xml version="1.0" encoding="UTF-8"?>
<svg id="Camada_2" data-name="Camada 2" xmlns="http://www.w3.org/2000/svg" viewBox="0 0 497.9 240.12">
  <defs>
    <style>
      .cls-1 {
        fill: #d83935;
      }
    </style>
  </defs>
  <g id="Camada_1-2" data-name="Camada 1">
    <g>
      <path class="cls-1" d="M0,174.14c11.51-1.79,22.25-7.16,35.03-36.82L90.78,7.67h5.11l55.75,128.88c12.02,27.62,23.78,37.34,34.01,37.59v4.86h-85.41v-4.86c9.46,0,21.99-12.27,14.06-31.45l-8.95-21.99h-56.26l-8.18,19.43c-11.51,26.85,5.62,34.01,15.34,34.01v4.86H0v-4.86ZM102.8,114.56l-25.06-60.35-25.83,60.35h50.89Z"/>
      <path class="cls-1" d="M198.44,54.21h3.07l46.29,102.03c6.91-11.51,17.13-36.31,17.13-53.7-.26-18.92-15.09-21.99-14.83-36.31,0-17.39,36.31-19.43,36.31,6.39,0,12.53-6.91,32.22-15.09,50.63-4.86,10.74-9.97,20.97-15.85,31.2-8.44,14.83-17.13,29.15-25.83,43.47-10.23,16.88-20.71,42.19-44.24,42.19-9.46-.26-17.39-6.14-17.13-18.92,0-7.67,5.62-14.83,13.55-14.83,7.42.26,8.95,5.37,15.6,7.93,15.85,5.88,31.96-17.13,23.27-35.29l-40.15-84.13c-6.65-14.32-11.25-20.71-24.8-21.23v-3.32l42.7-16.11Z"/>
      <path class="cls-1" d="M293.32,179v-4.86c4.6,0,19.18-6.14,19.18-27.36V46.03c0-15.85-3.07-24.04-16.88-24.55v-3.58L343.7,0h3.33v146.78c0,21.23,14.83,27.36,18.92,27.36v4.86h-72.62Z"/>
      <path class="cls-1" d="M367.74,148.83c.51-15.6,10.23-26.85,21.22-32.73,19.43-10.23,36.06-13.55,54.21-17.64v-1.53c0-14.57,0-37.34-20.2-37.08-15.85.26-17.9,12.79-17.9,27.1v8.95c0,8.44-32.22,11-30.43-9.71,2.05-25.57,28.13-31.71,49.1-31.97,22.25-.51,54.47,2.81,54.47,36.57v57.79c0,11.51,7.16,17.13,18.16,11.51l1.53,3.07c-6.65,13.04-17.13,16.88-30.94,16.88-11.51,0-22.5-7.16-23.78-22.25-7.16,13.04-19.43,22.25-41.94,22.25-19.69,0-34.01-11.25-33.5-31.2ZM419.14,165.71c11,.25,23.01-9.97,24.04-21.48v-40.4c-11.51,3.84-18.15,7.16-25.83,13.55-8.18,6.65-14.06,17.13-14.32,27.87,0,11.25,5.63,20.2,16.11,20.46Z"/>
    </g>
  </g>
</svg>