<?xml version="1.0" encoding="UTF-8"?>
<svg id="Camada_1" xmlns="http://www.w3.org/2000/svg" version="1.1" viewBox="0 0 500 500">
  <!-- Generator: Adobe Illustrator 29.1.0, SVG Export Plug-In . SVG Version: 2.1.0 Build 142)  -->
  <defs>
    <style>
      .st0 {
        fill: #e64d49;
      }
    </style>
  </defs>
  <path class="st0" d="M195.88,239.67c-5.63,1.49-7.38-3.14-7.38-3.14,0,0-1.74,3.49-4.11,3.49-5.09,0-11.36-12.94-3.25-18.19,8.11-5.26,26.54,14.42,14.74,17.84Z"/>
  <path class="st0" d="M187.59,271.75c-13.99,2.55,2.49,8.56,9.53,7.1,1.18-.24,2.41-.29,3.58-.02,12.48,2.92-9.09,14.37-20.93,6.64-3.18-2.08-5.17-7.04-4.43-10.72-4.15-1.68-8.1-3.12-5.51-5.8,1.59-1.64,3.04-3.42,4.24-5.37,7.52-12.27,21.14-10.2,27.08-2.59,6.46,8.29,12.86,12.77,13.01,13.61,1.27,7.08-21.9-3.56-26.57-2.86Z"/>
  <path class="st0" d="M243.27,310.07c-1.67.55-3.33,1.06-4.98,1.54,1.65-.48,3.31-.99,4.98-1.54Z"/>
  <path class="st0" d="M346.52,221.07c0,.44,0,.86-.02,1.27,0,.17-.02.33-.02.5-.02.22-.03.43-.05.64-.02.17-.03.35-.05.51-.03.27-.06.52-.1.76-.02.13-.05.26-.07.37-.08.4-.17.75-.27,1.07-.07.22-.15.42-.23.61-.13.29-.27.56-.43.79-.05.09-.12.16-.18.24-.23.29-.47.52-.75.71-.06.05-.13.09-.2.12-.1.06-.21.12-.32.17-.76.36-1.66.47-2.7.47-.65,0-1.6-1.44-2.72-2.48-1.41-.96-2.46-1.05-3.29-.53,0,0,0,0,0,0-.21.18-.43.4-.64.68-.38.5-.69.99-.94,1.45,0,0-.02.02,0,.03-.49,1.09-.89,2.46-1.3,3.97h0c-.38,1.87-.78,4.13-2.08,7.45-.54,1.37-1.16,2.51-1.82,3.44-.02.02-.03.04-.04.06-1.5,2.25-3.57,3.81-6.65,3.85-.1,0-.19,0-.29,0-2.84.09-5.13-1.13-5.13-1.13h0c-.02-.08-.04-.15-.05-.23-.09-.44-.09-1,0-1.67h0c.06-.5.17-1.06.33-1.67.16-.61.36-1.28.61-2,.36-1.05.82-2.2,1.36-3.42.11-.26.23-.5.34-.75.3-.68.63-1.37.99-2.07.09-.18.18-.36.27-.54.63-1.25,1.34-2.55,2.1-3.89.17-.3.33-.58.5-.87.34-.58.69-1.16,1.05-1.75.18-.29.36-.59.55-.89.37-.59.75-1.19,1.14-1.79.58-.9,1.19-1.81,1.82-2.71.19-.27.38-.54.58-.79.13-.19.28-.36.42-.54.02-.03.05-.05.07-.09.09-.11.17-.21.26-.31.58-.68,1.19-1.28,1.8-1.82.49-.43.99-.82,1.49-1.16.12-.09.26-.16.38-.25.12-.08.26-.16.38-.23.12-.08.26-.15.38-.22.13-.08.26-.14.38-.21.63-.33,1.26-.6,1.89-.8.02,0,.04-.02.06-.02.12-.04.23-.08.35-.11.38-.12.76-.22,1.13-.29.37-.08.75-.13,1.11-.16.12-.02.25-.02.36-.03.64-.05,1.26-.04,1.85.04.14,0,.27.03.4.05.12.02.24.04.36.06.12.02.24.05.36.08.47.11.92.26,1.35.43.5.21.96.47,1.37.76.09.07.19.14.29.22.19.15.38.31.54.48.08.07.16.15.23.23.07.09.14.16.21.25.06.07.12.16.18.23.38.51.67,1.09.85,1.72.02.05.03.12.05.17.03.12.06.24.08.36.05.21.07.43.09.64.02.16.02.32.02.48Z"/>
  <path class="st0" d="M275.65,235.92c-.23.22-.47.44-.71.65-.47.43-.97.85-1.47,1.25-.25.2-.5.4-.76.59-.26.19-.51.39-.77.57-.44.33-.9.64-1.36.95-.36.24-.71.47-1.08.68-.36.23-.72.44-1.09.65-.03.02-.06.03-.09.05-.57.32-1.15.63-1.74.92-.05.02-.09.04-.13.06-.58.29-1.17.57-1.77.82-.03.02-.06.02-.09.04-.31.13-.62.26-.94.39-.13.06-.27.12-.4.17,5.08-1.86,9.67-4.73,13.22-8.58-.27.27-.54.54-.82.78ZM261.54,244.32s.09-.02.13-.04c.08-.02.16-.05.23-.09-.12.04-.24.08-.37.12ZM262.7,243.91c-.14.05-.28.1-.42.16.23-.08.45-.16.68-.24-.09.03-.17.06-.26.09ZM255.47,245.84c.99-.16,1.96-.37,2.93-.61-.96.23-1.94.43-2.93.61ZM257.47,304.81c.14-.05.27-.12.41-.18.36-.16.72-.32,1.08-.49-.5.23-.99.45-1.49.67ZM259.15,304.05c.17-.07.34-.15.5-.23.45-.2.89-.41,1.34-.63.5-.24.99-.48,1.49-.73-1.1.54-2.21,1.07-3.33,1.59ZM248.31,246.43c-1.37,0-2.72-.06-4.05-.19,1.32.13,2.67.19,4.05.19,2.14,0,4.24-.16,6.28-.46-2.03.3-4.14.45-6.28.45ZM231.74,242.98c-.31-.13-.63-.28-.93-.43-.31-.14-.61-.29-.91-.45-.61-.31-1.19-.64-1.77-.98-.3-.17-.57-.34-.86-.52-.73-.45-1.44-.93-2.14-1.44-.05-.03-.1-.07-.15-.11-.71-.52-1.41-1.07-2.09-1.65-.26-.22-.51-.43-.76-.67-.42-.36-.83-.75-1.23-1.14,3.57,3.8,8.13,6.57,13.17,8.35-.79-.3-1.58-.61-2.34-.96ZM170.98,223.57c-.16.21-.33.42-.5.63.29-.33.56-.68.83-1.02-.1.13-.21.26-.33.4ZM165.04,229.45c-.07.06-.13.12-.2.17.26-.2.5-.4.75-.61-.18.15-.36.3-.54.43ZM164.4,229.94s-.06.05-.09.08c.09-.06.18-.12.27-.21-.06.05-.12.09-.18.13ZM163.07,230.91c-.13.1-.27.19-.41.29.21-.13.42-.27.62-.43-.07.05-.14.1-.21.14ZM161,232.24c-.08.05-.16.1-.24.16.12-.07.25-.15.37-.23-.05.02-.09.05-.13.07ZM159.58,233.04c-.09.06-.19.12-.3.16.39-.19.77-.41,1.15-.63-.28.16-.57.32-.85.47ZM135.11,242.6c0,.23,0,.45.02.68h0l-.02-.68ZM275.65,235.92c-.23.22-.47.44-.71.65-.47.43-.97.85-1.47,1.25-.25.2-.5.4-.76.59-.26.19-.51.39-.77.57-.44.33-.9.64-1.36.95-.36.24-.71.47-1.08.68-.36.23-.72.44-1.09.65-.03.02-.06.03-.09.05-.57.32-1.15.63-1.74.92-.05.02-.09.04-.13.06-.58.29-1.17.57-1.77.82-.03.02-.06.02-.09.04-.31.13-.62.26-.94.39-.13.06-.27.12-.4.17,5.08-1.86,9.67-4.73,13.22-8.58-.27.27-.54.54-.82.78ZM262.7,243.91c-.14.05-.28.1-.42.16.23-.08.45-.16.68-.24-.09.03-.17.06-.26.09ZM257.47,304.81c.14-.05.27-.12.41-.18.36-.16.72-.32,1.08-.49-.5.23-.99.45-1.49.67ZM259.15,304.05c.17-.07.34-.15.5-.23.45-.2.89-.41,1.34-.63.5-.24.99-.48,1.49-.73-1.1.54-2.21,1.07-3.33,1.59ZM261.54,244.32s.09-.02.13-.04c.08-.02.16-.05.23-.09-.12.04-.24.08-.37.12ZM255.47,245.84c.99-.16,1.96-.37,2.93-.61-.96.23-1.94.43-2.93.61ZM248.31,246.43c-1.37,0-2.72-.06-4.05-.19,1.32.13,2.67.19,4.05.19,2.14,0,4.24-.16,6.28-.46-2.03.3-4.14.45-6.28.45ZM231.74,242.98c-.31-.13-.63-.28-.93-.43-.31-.14-.61-.29-.91-.45-.61-.31-1.19-.64-1.77-.98-.3-.17-.57-.34-.86-.52-.73-.45-1.44-.93-2.14-1.44-.05-.03-.1-.07-.15-.11-.71-.52-1.41-1.07-2.09-1.65-.26-.22-.51-.43-.76-.67-.42-.36-.83-.75-1.23-1.14,3.57,3.8,8.13,6.57,13.17,8.35-.79-.3-1.58-.61-2.34-.96ZM170.98,223.57c-.16.21-.33.42-.5.63.29-.33.56-.68.83-1.02-.1.13-.21.26-.33.4ZM165.04,229.45c-.07.06-.13.12-.2.17.26-.2.5-.4.75-.61-.18.15-.36.3-.54.43ZM164.4,229.94s-.06.05-.09.08c.09-.06.18-.12.27-.21-.06.05-.12.09-.18.13ZM163.07,230.91c-.13.1-.27.19-.41.29.21-.13.42-.27.62-.43-.07.05-.14.1-.21.14ZM161,232.24c-.08.05-.16.1-.24.16.12-.07.25-.15.37-.23-.05.02-.09.05-.13.07ZM159.58,233.04c-.09.06-.19.12-.3.16.39-.19.77-.41,1.15-.63-.28.16-.57.32-.85.47ZM142.13,160.8c-.21,0-.42,0-.63,0-19.96,0-31.85,17.12-31.85,38.25,0,1.15.04,2.28.12,3.4.07,1.06.18,2.1.32,3.12.37,2.8.99,5.49,1.84,8.04.16.46.31.91.47,1.36.33.89.69,1.77,1.08,2.62.19.43.4.85.61,1.27.13.3.29.59.44.89.23.43.46.85.7,1.26l19.48-41.78c.77-1.67,2.75-2.38,4.41-1.61.02.02.05.02.08.04.82-5.65,1.81-11.27,3.01-16.86h-.09ZM119.99,226.53c-.09.2-.2.39-.33.56h0c2.75,3.04,6,5.5,9.69,7.25.35.17.71.33,1.06.48,1.13.48,2.3.9,3.51,1.25.47.13.95.26,1.43.37v-.16c.05-3.16.11-6.32.19-9.48l-.1.22c-.78,1.66-2.75,2.38-4.41,1.61-1.66-.78-2.38-2.76-1.61-4.42l6.77-14.52h0c.39-7.21.92-14.4,1.71-21.55l-17.91,38.4ZM135.11,242.6c0,.23,0,.45.02.68h0l-.02-.68ZM135.11,242.6c0,.23,0,.45.02.68h0l-.02-.68ZM275.65,235.92c-.23.22-.47.44-.71.65-.47.43-.97.85-1.47,1.25-.25.2-.5.4-.76.59-.26.19-.51.39-.77.57-.44.33-.9.64-1.36.95-.36.24-.71.47-1.08.68-.36.23-.72.44-1.09.65-.03.02-.06.03-.09.05-.57.32-1.15.63-1.74.92-.05.02-.09.04-.13.06-.58.29-1.17.57-1.77.82-.03.02-.06.02-.09.04-.31.13-.62.26-.94.39-.13.06-.27.12-.4.17,5.08-1.86,9.67-4.73,13.22-8.58-.27.27-.54.54-.82.78ZM262.7,243.91c-.14.05-.28.1-.42.16.23-.08.45-.16.68-.24-.09.03-.17.06-.26.09ZM259.15,304.05c.17-.07.34-.15.5-.23.45-.2.89-.41,1.34-.63.5-.24.99-.48,1.49-.73-1.1.54-2.21,1.07-3.33,1.59ZM261.54,244.32s.09-.02.13-.04c.08-.02.16-.05.23-.09-.12.04-.24.08-.37.12ZM257.47,304.81c-.2.09-.4.19-.61.28.34-.15.68-.29,1.02-.46.36-.16.72-.32,1.08-.49-.5.23-.99.45-1.49.67ZM255.47,245.84c.99-.16,1.96-.37,2.93-.61-.96.23-1.94.43-2.93.61ZM248.31,246.43c-1.37,0-2.72-.06-4.05-.19,1.32.13,2.67.19,4.05.19,2.14,0,4.24-.16,6.28-.46-2.03.3-4.14.45-6.28.45ZM231.74,242.98c-.31-.13-.63-.28-.93-.43-.31-.14-.61-.29-.91-.45-.61-.31-1.19-.64-1.77-.98-.3-.17-.57-.34-.86-.52-.73-.45-1.44-.93-2.14-1.44-.05-.03-.1-.07-.15-.11-.71-.52-1.41-1.07-2.09-1.65-.26-.22-.51-.43-.76-.67-.42-.36-.83-.75-1.23-1.14,3.57,3.8,8.13,6.57,13.17,8.35-.79-.3-1.58-.61-2.34-.96ZM170.98,223.57c-.16.21-.33.42-.5.63.29-.33.56-.68.83-1.02-.1.13-.21.26-.33.4ZM165.04,229.45c-.07.06-.13.12-.2.17.26-.2.5-.4.75-.61-.18.15-.36.3-.54.43ZM164.4,229.94s-.06.05-.09.08c.09-.06.18-.12.27-.21-.06.05-.12.09-.18.13ZM163.07,230.91c-.13.1-.27.19-.41.29.21-.13.42-.27.62-.43-.07.05-.14.1-.21.14ZM161,232.24c-.08.05-.16.1-.24.16.12-.07.25-.15.37-.23-.05.02-.09.05-.13.07ZM159.58,233.04c-.09.06-.19.12-.3.16.39-.19.77-.41,1.15-.63-.28.16-.57.32-.85.47ZM142.13,160.8c-.21,0-.42,0-.63,0-19.96,0-31.85,17.12-31.85,38.25,0,1.15.04,2.28.12,3.4.07,1.06.18,2.1.32,3.12.37,2.8.99,5.49,1.84,8.04.16.46.31.91.47,1.36.33.89.69,1.77,1.08,2.62.19.43.4.85.61,1.27.13.3.29.59.44.89.23.43.46.85.7,1.26l19.48-41.78c.77-1.67,2.75-2.38,4.41-1.61.02.02.05.02.08.04.82-5.65,1.81-11.27,3.01-16.86h-.09ZM119.99,226.53c-.09.2-.2.39-.33.56h0c2.75,3.04,6,5.5,9.69,7.25.35.17.71.33,1.06.48,1.13.48,2.3.9,3.51,1.25.47.13.95.26,1.43.37v-.16c.05-3.16.11-6.32.19-9.48l-.1.22c-.78,1.66-2.75,2.38-4.41,1.61-1.66-.78-2.38-2.76-1.61-4.42l6.77-14.52h0c.39-7.21.92-14.4,1.71-21.55l-17.91,38.4ZM135.11,242.6c0,.23,0,.45.02.68h0l-.02-.68ZM135.11,242.6c0,.23,0,.45.02.68h0l-.02-.68ZM223.91,149.35s-2.05,3.8,0,6.29c2.05,2.49-.05,5.32,28.89-1.34,23.91-5.51,25.28,6.18,32.6,5.95,2.61-.09,3.25-2.71,3.25-2.71-7.28-13.99-53.34-29.87-64.73-8.19ZM263.81,205.34l5.86-15.52,16.04.65c-5.95-16.45-21.55-27.9-39.26-27.9-13.71,0-24.58,6.86-31.01,17.6-.77,1.28-1.48,2.62-2.12,4.01-.14.08-.29.16-.43.23-15.79-10.13-30.84-6.78-38.27-3.96-1.37-2.39-3-4.62-4.84-6.66-7-7.78-16.97-12.77-27.52-12.99h-.12c-.21,0-.42,0-.63,0-19.96,0-31.85,17.12-31.85,38.25,0,1.15.04,2.28.12,3.4.07,1.06.18,2.1.32,3.12.37,2.8.99,5.49,1.84,8.04.16.46.31.91.47,1.36.33.89.69,1.77,1.08,2.62.19.43.4.85.61,1.27.13.3.29.59.44.89.23.43.46.85.7,1.26l19.48-41.78c.77-1.67,2.75-2.38,4.41-1.61.02.02.05.02.08.04,1.16.58,1.84,1.75,1.84,2.97,0,.47-.1.95-.31,1.4l-2.82,6.04-.02.05h0s-17.91,38.41-17.91,38.41c-.09.2-.2.39-.33.56h0c2.75,3.04,6,5.5,9.69,7.25.35.17.71.33,1.06.48,1.13.48,2.3.9,3.51,1.25.47.13.95.26,1.43.37,0,0,.02,0,.03,0,.31.07.61.14.93.21.28.05.57.11.85.16,0,0,.02,0,.02,0,.3.05.6.1.9.15.12.02.25.02.37.04.5.07,1.02.12,1.55.17.32.02.64.05.96.06.5.03.99.05,1.48.05.14,0,.28.02.43.02.26,0,.51,0,.77,0h.06c.12,0,.23,0,.36-.02.05,0,.09,0,.14,0,.99-.04,1.96-.12,2.93-.24l-.33.05c.26-.03.51-.06.76-.09.26-.03.5-.07.76-.12.5-.09,1-.17,1.51-.27.25-.05.5-.1.75-.16.07-.02.14-.03.21-.05.18-.04.36-.08.53-.12.03,0,.07-.02.1-.03.22-.05.42-.1.63-.16h0c.24-.07.48-.14.72-.21.33-.09.66-.19.99-.3.07-.02.14-.05.22-.07.32-.11.64-.23.96-.34.11-.04.22-.09.32-.12.13-.05.26-.09.39-.14.03-.02.07-.02.1-.05.3-.12.59-.23.89-.36.19-.08.39-.16.58-.26.05-.02.09-.03.12-.05.26-.11.5-.23.75-.35.02,0,.02,0,.04-.02.03-.02.05-.03.09-.04.19-.09.38-.19.57-.29.05-.02.09-.05.14-.07.12-.06.25-.12.37-.19.39-.19.77-.41,1.15-.63.11-.06.22-.12.33-.19.12-.07.25-.15.37-.23.05-.03.1-.06.15-.09.09-.05.19-.11.28-.16.28-.18.56-.36.83-.54.09-.05.18-.11.26-.17.21-.13.42-.27.62-.43.07-.05.14-.1.21-.15.09-.05.17-.12.25-.19.08-.05.16-.1.23-.16.02,0,.03-.02.05-.03l.02-.02s.02-.02.03-.02c.08-.05.16-.11.23-.17.09-.06.18-.12.27-.21.07-.05.14-.1.21-.16.02-.02.03-.02.05-.04.26-.2.5-.4.75-.61.04-.02.07-.05.1-.09.04-.02.08-.05.12-.09.02-.02.05-.04.07-.06.19-.16.39-.33.57-.5,0,0,.02,0,.02-.02.02-.02.04-.04.06-.05.16-.14.33-.29.48-.43.02-.02.05-.04.07-.06.35-.31.69-.63,1.03-.98.2-.18.4-.38.58-.58.31-.32.61-.64.9-.96.07-.08.15-.16.23-.25.08-.08.15-.16.22-.24.16-.16.3-.33.43-.5.29-.33.56-.68.83-1.02.11-.13.22-.26.32-.4.16-.21.33-.43.49-.64,4.71-6.41,7.54-14.4,7.54-23.08,0-2.87-.33-5.66-.97-8.35.43-.18.87-.36,1.31-.51.45-.16.89-.32,1.35-.46.46-.14.92-.26,1.38-.38.27-.07.55-.14.83-.19,2.94-.65,6.06-.86,9.39-.58,3.83.33,7.54,1.29,11.03,2.77.34.15.69.3,1.03.46.34.16.68.32,1.02.49.09.04.16.09.25.12.59.3,1.17.62,1.75.95.06.04.13.08.19.12.26.15.52.3.78.47.18.11.36.23.54.34.14.09.28.17.42.26-.68,3.4-1.04,6.97-1.04,10.68,0,12.35,4.45,22.92,11.87,30.25.03.04.07.08.11.12,3.57,3.8,8.13,6.57,13.17,8.35.02,0,.02,0,.03,0,.16.05.31.11.47.16.37.14.75.26,1.13.39.3.1.61.19.91.28.31.09.61.18.92.26.31.08.61.16.93.23.31.08.62.15.94.22.32.08.63.14.95.19.32.06.64.12.96.17.32.05.64.1.97.15.64.09,1.3.17,1.96.23,1.32.13,2.67.19,4.05.19,2.14,0,4.24-.16,6.28-.46.29-.05.58-.09.87-.14h0c.99-.16,1.96-.37,2.93-.61.36-.09.73-.19,1.09-.29.3-.08.59-.16.88-.25.4-.12.78-.25,1.17-.38.05,0,.09-.02.13-.04.08-.02.16-.05.23-.09.12-.05.25-.09.37-.13.23-.08.45-.16.68-.24.09-.03.19-.07.29-.11,5.08-1.86,9.67-4.73,13.22-8.58.04-.04.08-.08.11-.12,2.32-2.32,4.35-4.96,6.03-7.87.19-.31.37-.63.54-.96.24-.43.47-.85.68-1.3.46-.92.88-1.86,1.27-2.82.15-.36.29-.72.42-1.09,1.72-4.59,2.69-9.65,2.76-15.07l-24.47-.58ZM148.6,198.79l-13.06,28-.1.22c-.78,1.66-2.75,2.38-4.41,1.61-1.66-.78-2.38-2.76-1.61-4.42l6.77-14.52h0s6.38-13.69,6.38-13.69c.78-1.67,2.76-2.38,4.42-1.61,1.21.57,1.92,1.76,1.92,3.01,0,.47-.1.95-.31,1.4ZM150.44,190.3c-.47,0-.95-.1-1.41-.31-1.66-.77-2.38-2.75-1.61-4.41.57-1.21,1.76-1.92,3.02-1.92.47,0,.95.1,1.4.31,1.21.57,1.92,1.76,1.92,3.01,0,.47-.1.95-.31,1.41-.57,1.2-1.76,1.91-3.01,1.91ZM220.2,222.5l20.74-44.49c.78-1.66,2.76-2.38,4.42-1.61,1.21.57,1.92,1.76,1.92,3.01,0,.47-.1.95-.31,1.4l-20.75,44.5c-.78,1.66-2.75,2.38-4.42,1.61-1.66-.78-2.38-2.75-1.6-4.42ZM232.76,235.29c-1.66-.78-2.38-2.75-1.6-4.41l13.15-28.22c.78-1.66,2.75-2.38,4.41-1.61,1.21.57,1.92,1.76,1.92,3.01,0,.47-.1.95-.31,1.41l-13.15,28.21c-.78,1.66-2.75,2.38-4.42,1.61ZM223.91,149.35s-2.05,3.8,0,6.29c2.05,2.49-.05,5.32,28.89-1.34,23.91-5.51,25.28,6.18,32.6,5.95,2.61-.09,3.25-2.71,3.25-2.71-7.28-13.99-53.34-29.87-64.73-8.19ZM259.15,304.05c.17-.07.34-.15.5-.23.45-.2.89-.41,1.34-.63.5-.24.99-.48,1.49-.73-1.1.54-2.21,1.07-3.33,1.59ZM257.47,304.81c-.2.09-.4.19-.61.28.34-.15.68-.29,1.02-.46.36-.16.72-.32,1.08-.49-.5.23-.99.45-1.49.67ZM135.11,242.6c0,.23,0,.45.02.68h0l-.02-.68ZM135.11,242.6c0,.23,0,.45.02.68h0l-.02-.68ZM223.91,149.35s-2.05,3.8,0,6.29c2.05,2.49-.05,5.32,28.89-1.34,23.91-5.51,25.28,6.18,32.6,5.95,2.61-.09,3.25-2.71,3.25-2.71-7.28-13.99-53.34-29.87-64.73-8.19ZM263.81,205.34l5.86-15.52,16.04.65c-5.95-16.45-21.55-27.9-39.26-27.9-13.71,0-24.58,6.86-31.01,17.6-.77,1.28-1.48,2.62-2.12,4.01-.14.08-.29.16-.43.23-15.79-10.13-30.84-6.78-38.27-3.96-1.37-2.39-3-4.62-4.84-6.66-7-7.78-16.97-12.77-27.52-12.99h-.12c-.21,0-.42,0-.63,0-19.96,0-31.85,17.12-31.85,38.25,0,1.15.04,2.28.12,3.4.07,1.06.18,2.1.32,3.12.37,2.8.99,5.49,1.84,8.04.16.46.31.91.47,1.36.33.89.69,1.77,1.08,2.62.19.43.4.85.61,1.27.13.3.29.59.44.89.23.43.46.85.7,1.26l19.48-41.78c.77-1.67,2.75-2.38,4.41-1.61.02.02.05.02.08.04,1.16.58,1.84,1.75,1.84,2.97,0,.47-.1.95-.31,1.4l-2.82,6.04-.02.05h0s-17.91,38.41-17.91,38.41c-.09.2-.2.39-.33.56h0c2.75,3.04,6,5.5,9.69,7.25.35.17.71.33,1.06.48,1.13.48,2.3.9,3.51,1.25.47.13.95.26,1.43.37,0,0,.02,0,.03,0,.31.07.61.14.93.21.28.05.57.11.85.16,0,0,.02,0,.02,0,.3.05.6.1.9.15.12.02.25.02.37.04.5.07,1.02.12,1.55.17.32.02.64.05.96.06.5.03.99.05,1.48.05.14,0,.28.02.43.02.26,0,.51,0,.77,0h.06c.12,0,.23,0,.36-.02.05,0,.09,0,.14,0,.99-.04,1.96-.12,2.93-.24l-.33.05c.26-.03.51-.06.76-.09.26-.03.5-.07.76-.12.5-.09,1-.17,1.51-.27.25-.05.5-.1.75-.16.07-.02.14-.03.21-.05.18-.04.36-.08.53-.12.03,0,.07-.02.1-.03.22-.05.42-.1.63-.16h0c.24-.07.48-.14.72-.21.33-.09.66-.19.99-.3.07-.02.14-.05.22-.07.32-.11.64-.23.96-.34.11-.04.22-.09.32-.12.13-.05.26-.09.39-.14.03-.02.07-.02.1-.05.3-.12.59-.23.89-.36.19-.08.39-.16.58-.26.05-.02.09-.03.12-.05.26-.11.5-.23.75-.35.02,0,.02,0,.04-.02.03-.02.05-.03.09-.04.19-.09.38-.19.57-.29.05-.02.09-.05.14-.07.12-.06.25-.12.37-.19.39-.19.77-.41,1.15-.63.11-.06.22-.12.33-.19.12-.07.25-.15.37-.23.05-.03.1-.06.15-.09.09-.05.19-.11.28-.16.28-.18.56-.36.83-.54.09-.05.18-.11.26-.17.21-.13.42-.27.62-.43.07-.05.14-.1.21-.15.09-.05.17-.12.25-.19.08-.05.16-.1.23-.16.02,0,.03-.02.05-.03l.02-.02s.02-.02.03-.02c.08-.05.16-.11.23-.17.09-.06.18-.12.27-.21.07-.05.14-.1.21-.16.02-.02.03-.02.05-.04.26-.2.5-.4.75-.61.04-.02.07-.05.1-.09.04-.02.08-.05.12-.09.02-.02.05-.04.07-.06.19-.16.39-.33.57-.5,0,0,.02,0,.02-.02.02-.02.04-.04.06-.05.16-.14.33-.29.48-.43.02-.02.05-.04.07-.06.35-.31.69-.63,1.03-.98.2-.18.4-.38.58-.58.31-.32.61-.64.9-.96.07-.08.15-.16.23-.25.08-.08.15-.16.22-.24.16-.16.3-.33.43-.5.29-.33.56-.68.83-1.02.11-.13.22-.26.32-.4.16-.21.33-.43.49-.64,4.71-6.41,7.54-14.4,7.54-23.08,0-2.87-.33-5.66-.97-8.35.43-.18.87-.36,1.31-.51.45-.16.89-.32,1.35-.46.46-.14.92-.26,1.38-.38.27-.07.55-.14.83-.19,2.94-.65,6.06-.86,9.39-.58,3.83.33,7.54,1.29,11.03,2.77.34.15.69.3,1.03.46.34.16.68.32,1.02.49.09.04.16.09.25.12.59.3,1.17.62,1.75.95.06.04.13.08.19.12.26.15.52.3.78.47.18.11.36.23.54.34.14.09.28.17.42.26-.68,3.4-1.04,6.97-1.04,10.68,0,12.35,4.45,22.92,11.87,30.25.03.04.07.08.11.12,3.57,3.8,8.13,6.57,13.17,8.35.02,0,.02,0,.03,0,.16.05.31.11.47.16.37.14.75.26,1.13.39.3.1.61.19.91.28.31.09.61.18.92.26.31.08.61.16.93.23.31.08.62.15.94.22.32.08.63.14.95.19.32.06.64.12.96.17.32.05.64.1.97.15.64.09,1.3.17,1.96.23,1.32.13,2.67.19,4.05.19,2.14,0,4.24-.16,6.28-.46.29-.05.58-.09.87-.14h0c.99-.16,1.96-.37,2.93-.61.36-.09.73-.19,1.09-.29.3-.08.59-.16.88-.25.4-.12.78-.25,1.17-.38.05,0,.09-.02.13-.04.08-.02.16-.05.23-.09.12-.05.25-.09.37-.13.23-.08.45-.16.68-.24.09-.03.19-.07.29-.11,5.08-1.86,9.67-4.73,13.22-8.58.04-.04.08-.08.11-.12,2.32-2.32,4.35-4.96,6.03-7.87.19-.31.37-.63.54-.96.24-.43.47-.85.68-1.3.46-.92.88-1.86,1.27-2.82.15-.36.29-.72.42-1.09,1.72-4.59,2.69-9.65,2.76-15.07l-24.47-.58ZM148.6,198.79l-13.06,28-.1.22c-.78,1.66-2.75,2.38-4.41,1.61-1.66-.78-2.38-2.76-1.61-4.42l6.77-14.52h0s6.38-13.69,6.38-13.69c.78-1.67,2.76-2.38,4.42-1.61,1.21.57,1.92,1.76,1.92,3.01,0,.47-.1.95-.31,1.4ZM150.44,190.3c-.47,0-.95-.1-1.41-.31-1.66-.77-2.38-2.75-1.61-4.41.57-1.21,1.76-1.92,3.02-1.92.47,0,.95.1,1.4.31,1.21.57,1.92,1.76,1.92,3.01,0,.47-.1.95-.31,1.41-.57,1.2-1.76,1.91-3.01,1.91ZM220.2,222.5l20.74-44.49c.78-1.66,2.76-2.38,4.42-1.61,1.21.57,1.92,1.76,1.92,3.01,0,.47-.1.95-.31,1.4l-20.75,44.5c-.78,1.66-2.75,2.38-4.42,1.61-1.66-.78-2.38-2.75-1.6-4.42ZM232.76,235.29c-1.66-.78-2.38-2.75-1.6-4.41l13.15-28.22c.78-1.66,2.75-2.38,4.41-1.61,1.21.57,1.92,1.76,1.92,3.01,0,.47-.1.95-.31,1.41l-13.15,28.21c-.78,1.66-2.75,2.38-4.42,1.61ZM223.91,149.35s-2.05,3.8,0,6.29c2.05,2.49-.05,5.32,28.89-1.34,23.91-5.51,25.28,6.18,32.6,5.95,2.61-.09,3.25-2.71,3.25-2.71-7.28-13.99-53.34-29.87-64.73-8.19ZM259.15,304.05c.17-.07.34-.15.5-.23.45-.2.89-.41,1.34-.63.5-.24.99-.48,1.49-.73-1.1.54-2.21,1.07-3.33,1.59ZM257.47,304.81c-.2.09-.4.19-.61.28.34-.15.68-.29,1.02-.46.36-.16.72-.32,1.08-.49-.5.23-.99.45-1.49.67ZM135.11,242.6c0,.23,0,.45.02.68h0l-.02-.68ZM135.11,242.6c0,.23,0,.45.02.68h0l-.02-.68ZM223.91,149.35s-2.05,3.8,0,6.29c2.05,2.49-.05,5.32,28.89-1.34,23.91-5.51,25.28,6.18,32.6,5.95,2.61-.09,3.25-2.71,3.25-2.71-7.28-13.99-53.34-29.87-64.73-8.19ZM269.67,189.82l16.04.65c-5.95-16.45-21.55-27.9-39.26-27.9-13.71,0-24.58,6.86-31.01,17.6-.77,1.28-1.48,2.62-2.12,4.01-.14.08-.29.16-.43.23-15.79-10.13-30.84-6.78-38.27-3.96-1.37-2.39-3-4.62-4.84-6.66-7-7.78-16.97-12.77-27.52-12.99h-.12c-.21,0-.42,0-.63,0-19.96,0-31.85,17.12-31.85,38.25,0,1.15.04,2.28.12,3.4.07,1.06.18,2.1.32,3.12.37,2.8.99,5.49,1.84,8.04.16.46.31.91.47,1.36.33.89.69,1.77,1.08,2.62.19.43.4.85.61,1.27.13.3.29.59.44.89.23.43.46.85.7,1.26l19.48-41.78c.77-1.67,2.75-2.38,4.41-1.61.02.02.05.02.08.04,1.16.58,1.84,1.75,1.84,2.97,0,.47-.1.95-.31,1.4l-2.82,6.04-.02.05h0s-17.91,38.41-17.91,38.41c-.09.2-.2.39-.33.56h0c2.75,3.04,6,5.5,9.69,7.25.35.17.71.33,1.06.48,1.13.48,2.3.9,3.51,1.25.47.13.95.26,1.43.37,0,0,.02,0,.03,0,.31.07.61.14.93.21.28.05.57.11.85.16,0,0,.02,0,.02,0,.3.05.6.1.9.15.12.02.25.02.37.04.5.07,1.02.12,1.55.17.32.02.64.05.96.06.5.03.99.05,1.48.05.14,0,.28.02.43.02.26,0,.51,0,.77,0h.06c.12,0,.23,0,.36-.02.05,0,.09,0,.14,0,.99-.04,1.96-.12,2.93-.24l-.33.05c.26-.03.51-.06.76-.09.26-.03.5-.07.76-.12.5-.09,1-.17,1.51-.27.25-.05.5-.1.75-.16.07-.02.14-.03.21-.05.18-.04.36-.08.53-.12.03,0,.07-.02.1-.03.22-.05.42-.1.63-.16h0c.24-.07.48-.14.72-.21.33-.09.66-.19.99-.3.07-.02.14-.05.22-.07.32-.11.64-.23.96-.34.11-.04.22-.09.32-.12.13-.05.26-.09.39-.14.03-.02.07-.02.1-.05.3-.12.59-.23.89-.36.19-.08.39-.16.58-.26.05-.02.09-.03.12-.05.26-.11.5-.23.75-.35.02,0,.02,0,.04-.02.03-.02.05-.03.09-.04.19-.09.38-.19.57-.29.05-.02.09-.05.14-.07.12-.06.25-.12.37-.19.39-.19.77-.41,1.15-.63.11-.06.22-.12.33-.19.12-.07.25-.15.37-.23.05-.03.1-.06.15-.09.09-.05.19-.11.28-.16.28-.18.56-.36.83-.54.09-.05.18-.11.26-.17.21-.13.42-.27.62-.43.07-.05.14-.1.21-.15.09-.05.17-.12.25-.19.08-.05.16-.1.23-.16.02,0,.03-.02.05-.03l.02-.02s.02-.02.03-.02c.08-.05.16-.11.23-.17.09-.06.18-.12.27-.21.07-.05.14-.1.21-.16.02-.02.03-.02.05-.04.26-.2.5-.4.75-.61.04-.02.07-.05.1-.09.04-.02.08-.05.12-.09.02-.02.05-.04.07-.06.19-.16.39-.33.57-.5,0,0,.02,0,.02-.02.02-.02.04-.04.06-.05.16-.14.33-.29.48-.43.02-.02.05-.04.07-.06.35-.31.69-.63,1.03-.98.2-.18.4-.38.58-.58.31-.32.61-.64.9-.96.07-.08.15-.16.23-.25.08-.08.15-.16.22-.24.16-.16.3-.33.43-.5.29-.33.56-.68.83-1.02.11-.13.22-.26.32-.4.16-.21.33-.43.49-.64,4.71-6.41,7.54-14.4,7.54-23.08,0-2.87-.33-5.66-.97-8.35.43-.18.87-.36,1.31-.51.45-.16.89-.32,1.35-.46.46-.14.92-.26,1.38-.38.27-.07.55-.14.83-.19,2.94-.65,6.06-.86,9.39-.58,3.83.33,7.54,1.29,11.03,2.77.34.15.69.3,1.03.46.34.16.68.32,1.02.49.09.04.16.09.25.12.59.3,1.17.62,1.75.95.06.04.13.08.19.12.26.15.52.3.78.47.18.11.36.23.54.34.14.09.28.17.42.26-.68,3.4-1.04,6.97-1.04,10.68,0,12.35,4.45,22.92,11.87,30.25.03.04.07.08.11.12,3.57,3.8,8.13,6.57,13.17,8.35.02,0,.02,0,.03,0,.16.05.31.11.47.16.37.14.75.26,1.13.39.3.1.61.19.91.28.31.09.61.18.92.26.31.08.61.16.93.23.31.08.62.15.94.22.32.08.63.14.95.19.32.06.64.12.96.17.32.05.64.1.97.15.64.09,1.3.17,1.96.23,1.32.13,2.67.19,4.05.19,2.14,0,4.24-.16,6.28-.46.29-.05.58-.09.87-.14h0c.99-.16,1.96-.37,2.93-.61.36-.09.73-.19,1.09-.29.3-.08.59-.16.88-.25.4-.12.78-.25,1.17-.38.05,0,.09-.02.13-.04.08-.02.16-.05.23-.09.12-.05.25-.09.37-.13.23-.08.45-.16.68-.24.09-.03.19-.07.29-.11,5.08-1.86,9.67-4.73,13.22-8.58.04-.04.08-.08.11-.12,2.32-2.32,4.35-4.96,6.03-7.87.19-.31.37-.63.54-.96.24-.43.47-.85.68-1.3.46-.92.88-1.86,1.27-2.82.15-.36.29-.72.42-1.09,1.72-4.59,2.69-9.65,2.76-15.07l-24.47-.58,5.86-15.52ZM148.6,198.79l-13.06,28-.1.22c-.78,1.66-2.75,2.38-4.41,1.61-1.66-.78-2.38-2.76-1.61-4.42l6.77-14.52h0s6.38-13.69,6.38-13.69c.78-1.67,2.76-2.38,4.42-1.61,1.21.57,1.92,1.76,1.92,3.01,0,.47-.1.95-.31,1.4ZM150.44,190.3c-.47,0-.95-.1-1.41-.31-1.66-.77-2.38-2.75-1.61-4.41.57-1.21,1.76-1.92,3.02-1.92.47,0,.95.1,1.4.31,1.21.57,1.92,1.76,1.92,3.01,0,.47-.1.95-.31,1.41-.57,1.2-1.76,1.91-3.01,1.91ZM220.2,222.5l20.74-44.49c.78-1.66,2.76-2.38,4.42-1.61,1.21.57,1.92,1.76,1.92,3.01,0,.47-.1.95-.31,1.4l-20.75,44.5c-.78,1.66-2.75,2.38-4.42,1.61-1.66-.78-2.38-2.75-1.6-4.42ZM232.76,235.29c-1.66-.78-2.38-2.75-1.6-4.41l13.15-28.22c.78-1.66,2.75-2.38,4.41-1.61,1.21.57,1.92,1.76,1.92,3.01,0,.47-.1.95-.31,1.41l-13.15,28.21c-.78,1.66-2.75,2.38-4.42,1.61ZM252.8,154.3c23.91-5.51,25.28,6.18,32.6,5.95,2.61-.09,3.25-2.71,3.25-2.71-7.28-13.99-53.34-29.87-64.73-8.19,0,0-2.05,3.8,0,6.29,2.05,2.49-.05,5.32,28.89-1.34ZM259.65,303.82c.45-.2.89-.41,1.34-.63.5-.24.99-.48,1.49-.73-1.1.54-2.21,1.07-3.33,1.59.17-.07.34-.15.5-.23ZM256.87,305.09c.34-.15.68-.29,1.02-.46.36-.16.72-.32,1.08-.49-.5.23-.99.45-1.49.67-.2.09-.4.19-.61.28ZM135.12,243.28h0l-.02-.68c0,.23,0,.45.02.68ZM465.56,189.23c-17.41-21.51-40.47-10.72-48.04-11.73-3.79-.51-6.98-3.18-7.55-4.52,11.04,1.89,25.8-4.55,30.43-10.47,11.85-14.38-4.79-37.68-16.77-34.69-16.82,5.04-10.32,19.06-5.4,19.02,22.95-.22,7.31,16.19-9.57,7.03-13.13-7.12-28.86-68.92-62.13-81.57-33.27-12.65-62.7-2.5-62.7-2.5C193.97,4.41,112.54,104.7,101.18,116.66c-11.37,11.97-28.99,14.99-28.37,4.43.59-10.01,10.34,2,16.21-4.84,10.63-12.39-5.26-20.66-22.07-12.01-22.38,11.52-10.23,42.28,5.66,37.89,15.97-4.41,23.6-6.33,28.54.09-12.61,1.23-22.99,1.98-37.78,19.63-21.17,25.27-7.98,47.93,2.95,57.07-7.79,3.66-22.09-.51-25.06-5.19-2.97-4.68,10.63-9.68,5.39-13.67-5.24-3.99-18.56-5.99-23.22,7.65-10.41,30.48,34.47,23.67,37.15,23.24-1.24.36-11.72,3.94-22.33,25.12-5.49,10.93-2.14,16.44,2.52,18.64,4.95,2.35,10.46,1.47,10.25-1.68-.36-5.51,1.14-20.56,7.2-26.71-5.66,27.96,6.99,33.31,19.86,36.64-3.76,25.49,6.1,36.57,32.58,36.46,2.76,18.61,20.78,30.11,43.17,16.51,8.41,22.54,19.87,27.71,41.38,21.24,4.67,7.24,10.82,12.39,17.87,15.94h0c1.09.56,2.21,1.06,3.35,1.54,0,0,0,0,.02,0,3.52,1.47,7.23,2.57,11.06,3.38,1.07.23,2.15.43,3.24.61,2.41-6.48,3.53-14.65,2.93-25.12,7.92-5.4,38.45-26.88,47.09-42.69,3.3,21.96,8.41,43.49,18.33,58.91,1.48-.51,2.87-1.02,4.16-1.51,1.68-.63,3.2-1.23,4.54-1.79.93-.39,1.82-.78,2.67-1.19,1.62-.78,3.09-1.59,4.41-2.42,13.67-8.55,11.98-19.03,11.98-19.03,0,0,10.91,8.19,25.7,6.38,14.79-1.82,21.65-13.33,25.97-26.14,21.3.99,38.28-16.49,31.43-34.94,37.86-8.18,52.6-25.71,46.12-55.16-4.27-19.37-8.49-33.18-38.94-40.92,55.16-3.99,38.12,44.08,55.65,33.93,6.7-3.87,9.74-16.72-7.24-37.68ZM186.26,106.62c12.04-3.63,25.49-18.56,38.27-13.43,0,0,.03.02.09.05.02,0,.05.02.07.04.7.44,3.56,2.4,3.56,4.71,0,.48-.12.98-.42,1.48-4.32,7.42-23.3,15.23-51.79,13.36-.56-.04-1.12-.07-1.68-.12-3.4-.29-6.57-.68-9.43-1.09-9.85-1.46-16.18-3.39-16.18-3.39,0,0,9.17.72,19.11.51,6.63-.13,13.6-.68,18.42-2.14ZM325.43,134.84h0c5.47,4.41,10.95,8.58,15.84,11.48,0,0-5.82-.89-12.91-2.74-6.8-1.76-14.77-4.41-19.9-7.96-10.49-7.26-13.74-14.04-14.32-16.4-3.75-15.34,13.64,1.37,31.29,15.62ZM330.82,154.16c.13-.03.26-.05.39-.06,3.67-.37,12.99,4,17.55,6.27h0c1.58.78,2.58,1.32,2.58,1.32-9.59,1.2-15.66,1.06-19.34.26-3.27-.71-4.64-1.93-4.93-3.21-.44-2.01,1.82-4.15,3.75-4.58ZM355.18,231.37c-3.27,26.67-18.41,32-49.5,34.69-7.56,11.68-18.72,21.86-31.26,29.74-.72.46-1.45.9-2.18,1.34-.58.36-1.16.7-1.75,1.04-.69.4-1.39.79-2.09,1.18-.59.33-1.18.64-1.77.96-.64.35-1.29.69-1.94,1.03-.37.19-.72.37-1.09.56s-.74.37-1.1.55h0c-1.1.54-2.21,1.08-3.33,1.6-.06.04-.12.06-.19.09-.5.23-.99.45-1.49.67-.2.09-.4.19-.61.28-1.37.61-2.74,1.2-4.13,1.76-.68.28-1.37.55-2.05.82-.78.3-1.57.6-2.35.89-.7.26-1.4.51-2.1.76-.67.23-1.34.47-2,.69-.57.19-1.14.38-1.72.56-.57.19-1.14.36-1.72.54-.89.27-1.77.54-2.66.79-6.11,1.74-12.33,3.08-18.61,3.99.51-.09,1.03-.17,1.55-.26,1.44-.26,2.91-.54,4.41-.85l-9.72,1.6h0c-7.56.84-15.14.99-22.63.36-19.95-5.01-56.61-40.23-58-73.46-7.97-1.85-15.05-6.2-20.49-12.69-6.93-8.26-10.75-19.47-10.75-31.54s3.53-23.26,9.94-31.38c7.06-8.94,17.32-13.86,28.89-13.86.26,0,.53,0,.79,0,0-.02,0-.03.02-.05.03,0,.05,0,.08,0,7.15,0,11.31-3.35,16.66-1.21,13.88,5.52,20.05,5.89,22.22,3.5,2.17-2.39.3-6.28.3-6.28-8.49-14.44-25.78-10.56-37.34-3.63,1.86-6.35,4.25-12.18,7.11-17.5,52.05,12.28,95.35.22,120.58-27.4-3.12,8.53-2.55,18.48,2.48,27.09,6.99,11.93,20.01,23.16,39.68,28.13,1.73,10.79,5.99,27.47,16.14,35.87l-45.74-1.86c-5.95-16.45-21.55-27.9-39.26-27.9-13.71,0-24.58,6.86-31.01,17.6-.77,1.28-1.48,2.62-2.12,4.01-.14.08-.29.16-.43.23-15.79-10.13-30.84-6.78-38.27-3.96-1.37-2.39-3-4.62-4.84-6.66-7-7.78-16.97-12.77-27.52-12.99h-.12c-.21,0-.42,0-.63,0-19.96,0-31.85,17.12-31.85,38.25,0,1.15.04,2.28.12,3.4.07,1.06.18,2.1.32,3.12.37,2.8.99,5.49,1.84,8.04.16.46.31.91.47,1.36.33.89.69,1.77,1.08,2.62.19.43.4.85.61,1.27.13.3.29.59.44.89.23.43.46.85.7,1.26l19.48-41.78c.77-1.67,2.75-2.38,4.41-1.61.02.02.05.02.08.04,1.16.58,1.84,1.75,1.84,2.97,0,.47-.1.95-.31,1.4l-2.82,6.04-.02.05h0s-17.91,38.41-17.91,38.41c-.09.2-.2.39-.33.56h0c2.75,3.04,6,5.5,9.69,7.25.35.17.71.33,1.06.48,1.13.48,2.3.9,3.51,1.25.47.13.95.26,1.43.37,0,0,.02,0,.03,0,.31.07.61.14.93.21.28.05.57.11.85.16,0,0,.02,0,.02,0,.3.05.6.1.9.15.12.02.25.02.37.04.5.07,1.02.12,1.55.17.32.02.64.05.96.06.5.03.99.05,1.48.05.14,0,.28.02.43.02.26,0,.51,0,.77,0h.06c.12,0,.23,0,.36-.02.05,0,.09,0,.14,0,.99-.04,1.96-.12,2.93-.24l-.33.05c.26-.03.51-.06.76-.09.26-.03.5-.07.76-.12.5-.09,1-.17,1.51-.27.25-.05.5-.1.75-.16.07-.02.14-.03.21-.05.18-.04.36-.08.53-.12.03,0,.07-.02.1-.03.22-.05.42-.1.63-.16h0c.24-.07.48-.14.72-.21.33-.09.66-.19.99-.3.07-.02.14-.05.22-.07.32-.11.64-.23.96-.34.11-.04.22-.09.32-.12.13-.05.26-.09.39-.14.03-.02.07-.02.1-.05.3-.12.59-.23.89-.36.19-.08.39-.16.58-.26.05-.02.09-.03.12-.05.26-.11.5-.23.75-.35.02,0,.02,0,.04-.02.03-.02.05-.03.09-.04.19-.09.38-.19.57-.29.05-.02.09-.05.14-.07.12-.06.25-.12.37-.19.39-.19.77-.41,1.15-.63.11-.06.22-.12.33-.19.12-.07.25-.15.37-.23.05-.03.1-.06.15-.09.09-.05.19-.11.28-.16.28-.18.56-.36.83-.54.09-.05.18-.11.26-.17.21-.13.42-.27.62-.43.07-.05.14-.1.21-.15.09-.05.17-.12.25-.19.08-.05.16-.1.23-.16.02,0,.03-.02.05-.03l.02-.02s.02-.02.03-.02c.08-.05.16-.11.23-.17.09-.06.18-.12.27-.21.07-.05.14-.1.21-.16.02-.02.03-.02.05-.04.26-.2.5-.4.75-.61.04-.02.07-.05.1-.09.04-.02.08-.05.12-.09.02-.02.05-.04.07-.06.19-.16.39-.33.57-.5,0,0,.02,0,.02-.02.02-.02.04-.04.06-.05.16-.14.33-.29.48-.43.02-.02.05-.04.07-.06.35-.31.69-.63,1.03-.98.2-.18.4-.38.58-.58.31-.32.61-.64.9-.96.07-.08.15-.16.23-.25.08-.08.15-.16.22-.24.16-.16.3-.33.43-.5.29-.33.56-.68.83-1.02.11-.13.22-.26.32-.4.16-.21.33-.43.49-.64,4.71-6.41,7.54-14.4,7.54-23.08,0-2.87-.33-5.66-.97-8.35.43-.18.87-.36,1.31-.51.45-.16.89-.32,1.35-.46.46-.14.92-.26,1.38-.38.27-.07.55-.14.83-.19,2.94-.65,6.06-.86,9.39-.58,3.83.33,7.54,1.29,11.03,2.77.34.15.69.3,1.03.46.34.16.68.32,1.02.49.09.04.16.09.25.12.59.3,1.17.62,1.75.95.06.04.13.08.19.12.26.15.52.3.78.47.18.11.36.23.54.34.14.09.28.17.42.26-.68,3.4-1.04,6.97-1.04,10.68,0,12.35,4.45,22.92,11.87,30.25.03.04.07.08.11.12,3.57,3.8,8.13,6.57,13.17,8.35.02,0,.02,0,.03,0,.16.05.31.11.47.16.37.14.75.26,1.13.39.3.1.61.19.91.28.31.09.61.18.92.26.31.08.61.16.93.23.31.08.62.15.94.22.32.08.63.14.95.19.32.06.64.12.96.17.32.05.64.1.97.15.64.09,1.3.17,1.96.23,1.32.13,2.67.19,4.05.19,2.14,0,4.24-.16,6.28-.46.29-.05.58-.09.87-.14h0c.99-.16,1.96-.37,2.93-.61.36-.09.73-.19,1.09-.29.3-.08.59-.16.88-.25.4-.12.78-.25,1.17-.38.05,0,.09-.02.13-.04.08-.02.16-.05.23-.09.12-.05.25-.09.37-.13.23-.08.45-.16.68-.24.09-.03.19-.07.29-.11,5.08-1.86,9.67-4.73,13.22-8.58.04-.04.08-.08.11-.12,2.32-2.32,4.35-4.96,6.03-7.87.19-.31.37-.63.54-.96.24-.43.47-.85.68-1.3.46-.92.88-1.86,1.27-2.82.15-.36.29-.72.42-1.09,1.72-4.59,2.69-9.65,2.76-15.07l43.11,1.03h0s1.13-.23,1.13-.23c7.25-1.4,25.71-2.83,22.67,24.65ZM221.8,226.92c-1.66-.78-2.38-2.75-1.6-4.42l20.74-44.49c.78-1.66,2.76-2.38,4.42-1.61,1.21.57,1.92,1.76,1.92,3.01,0,.47-.1.95-.31,1.4l-20.75,44.5c-.78,1.66-2.75,2.38-4.42,1.61ZM232.76,235.29c-1.66-.78-2.38-2.75-1.6-4.41l13.15-28.22c.78-1.66,2.75-2.38,4.41-1.61,1.21.57,1.92,1.76,1.92,3.01,0,.47-.1.95-.31,1.41l-13.15,28.21c-.78,1.66-2.75,2.38-4.42,1.61ZM153.45,188.38c-.57,1.2-1.76,1.91-3.01,1.91-.47,0-.95-.1-1.41-.31-1.66-.77-2.38-2.75-1.61-4.41.57-1.21,1.76-1.92,3.02-1.92.47,0,.95.1,1.4.31,1.21.57,1.92,1.76,1.92,3.01,0,.47-.1.95-.31,1.41ZM135.53,226.79l-.1.22c-.78,1.66-2.75,2.38-4.41,1.61-1.66-.78-2.38-2.76-1.61-4.42l6.77-14.52h0s6.38-13.69,6.38-13.69c.78-1.67,2.76-2.38,4.42-1.61,1.21.57,1.92,1.76,1.92,3.01,0,.47-.1.95-.31,1.4l-13.06,28ZM252.8,154.3c23.91-5.51,25.28,6.18,32.6,5.95,2.61-.09,3.25-2.71,3.25-2.71-7.28-13.99-53.34-29.87-64.73-8.19,0,0-2.05,3.8,0,6.29,2.05,2.49-.05,5.32,28.89-1.34ZM135.11,242.6c0,.23,0,.45.02.68h0l-.02-.68ZM135.11,242.6c0,.23,0,.45.02.68h0l-.02-.68ZM257.47,304.81c-.2.09-.4.19-.61.28.34-.15.68-.29,1.02-.46.36-.16.72-.32,1.08-.49-.5.23-.99.45-1.49.67ZM259.15,304.05c.17-.07.34-.15.5-.23.45-.2.89-.41,1.34-.63.5-.24.99-.48,1.49-.73-1.1.54-2.21,1.07-3.33,1.59ZM223.91,149.35s-2.05,3.8,0,6.29c2.05,2.49-.05,5.32,28.89-1.34,23.91-5.51,25.28,6.18,32.6,5.95,2.61-.09,3.25-2.71,3.25-2.71-7.28-13.99-53.34-29.87-64.73-8.19ZM263.81,205.34l5.86-15.52,16.04.65c-5.95-16.45-21.55-27.9-39.26-27.9-13.71,0-24.58,6.86-31.01,17.6-.77,1.28-1.48,2.62-2.12,4.01-.14.08-.29.16-.43.23-15.79-10.13-30.84-6.78-38.27-3.96-1.37-2.39-3-4.62-4.84-6.66-7-7.78-16.97-12.77-27.52-12.99h-.12c-.21,0-.42,0-.63,0-19.96,0-31.85,17.12-31.85,38.25,0,1.15.04,2.28.12,3.4.07,1.06.18,2.1.32,3.12.37,2.8.99,5.49,1.84,8.04.16.46.31.91.47,1.36.33.89.69,1.77,1.08,2.62.19.43.4.85.61,1.27.13.3.29.59.44.89.23.43.46.85.7,1.26l19.48-41.78c.77-1.67,2.75-2.38,4.41-1.61.02.02.05.02.08.04,1.16.58,1.84,1.75,1.84,2.97,0,.47-.1.95-.31,1.4l-2.82,6.04-.02.05h0s-17.91,38.41-17.91,38.41c-.09.2-.2.39-.33.56h0c2.75,3.04,6,5.5,9.69,7.25.35.17.71.33,1.06.48,1.13.48,2.3.9,3.51,1.25.47.13.95.26,1.43.37,0,0,.02,0,.03,0,.31.07.61.14.93.21.28.05.57.11.85.16,0,0,.02,0,.02,0,.3.05.6.1.9.15.12.02.25.02.37.04.5.07,1.02.12,1.55.17.32.02.64.05.96.06.5.03.99.05,1.48.05.14,0,.28.02.43.02.26,0,.51,0,.77,0h.06c.12,0,.23,0,.36-.02.05,0,.09,0,.14,0,.99-.04,1.96-.12,2.93-.24l-.33.05c.26-.03.51-.06.76-.09.26-.03.5-.07.76-.12.5-.09,1-.17,1.51-.27.25-.05.5-.1.75-.16.07-.02.14-.03.21-.05.18-.04.36-.08.53-.12.03,0,.07-.02.1-.03.22-.05.42-.1.63-.16h0c.24-.07.48-.14.72-.21.33-.09.66-.19.99-.3.07-.02.14-.05.22-.07.32-.11.64-.23.96-.34.11-.04.22-.09.32-.12.13-.05.26-.09.39-.14.03-.02.07-.02.1-.05.3-.12.59-.23.89-.36.19-.08.39-.16.58-.26.05-.02.09-.03.12-.05.26-.11.5-.23.75-.35.02,0,.02,0,.04-.02.03-.02.05-.03.09-.04.19-.09.38-.19.57-.29.05-.02.09-.05.14-.07.12-.06.25-.12.37-.19.39-.19.77-.41,1.15-.63.11-.06.22-.12.33-.19.12-.07.25-.15.37-.23.05-.03.1-.06.15-.09.09-.05.19-.11.28-.16.28-.18.56-.36.83-.54.09-.05.18-.11.26-.17.21-.13.42-.27.62-.43.07-.05.14-.1.21-.15.09-.05.17-.12.25-.19.08-.05.16-.1.23-.16.02,0,.03-.02.05-.03l.02-.02s.02-.02.03-.02c.08-.05.16-.11.23-.17.09-.06.18-.12.27-.21.07-.05.14-.1.21-.16.02-.02.03-.02.05-.04.26-.2.5-.4.75-.61.04-.02.07-.05.1-.09.04-.02.08-.05.12-.09.02-.02.05-.04.07-.06.19-.16.39-.33.57-.5,0,0,.02,0,.02-.02.02-.02.04-.04.06-.05.16-.14.33-.29.48-.43.02-.02.05-.04.07-.06.35-.31.69-.63,1.03-.98.2-.18.4-.38.58-.58.31-.32.61-.64.9-.96.07-.08.15-.16.23-.25.08-.08.15-.16.22-.24.16-.16.3-.33.43-.5.29-.33.56-.68.83-1.02.11-.13.22-.26.32-.4.16-.21.33-.43.49-.64,4.71-6.41,7.54-14.4,7.54-23.08,0-2.87-.33-5.66-.97-8.35.43-.18.87-.36,1.31-.51.45-.16.89-.32,1.35-.46.46-.14.92-.26,1.38-.38.27-.07.55-.14.83-.19,2.94-.65,6.06-.86,9.39-.58,3.83.33,7.54,1.29,11.03,2.77.34.15.69.3,1.03.46.34.16.68.32,1.02.49.09.04.16.09.25.12.59.3,1.17.62,1.75.95.06.04.13.08.19.12.26.15.52.3.78.47.18.11.36.23.54.34.14.09.28.17.42.26-.68,3.4-1.04,6.97-1.04,10.68,0,12.35,4.45,22.92,11.87,30.25.03.04.07.08.11.12,3.57,3.8,8.13,6.57,13.17,8.35.02,0,.02,0,.03,0,.16.05.31.11.47.16.37.14.75.26,1.13.39.3.1.61.19.91.28.31.09.61.18.92.26.31.08.61.16.93.23.31.08.62.15.94.22.32.08.63.14.95.19.32.06.64.12.96.17.32.05.64.1.97.15.64.09,1.3.17,1.96.23,1.32.13,2.67.19,4.05.19,2.14,0,4.24-.16,6.28-.46.29-.05.58-.09.87-.14h0c.99-.16,1.96-.37,2.93-.61.36-.09.73-.19,1.09-.29.3-.08.59-.16.88-.25.4-.12.78-.25,1.17-.38.05,0,.09-.02.13-.04.08-.02.16-.05.23-.09.12-.05.25-.09.37-.13.23-.08.45-.16.68-.24.09-.03.19-.07.29-.11,5.08-1.86,9.67-4.73,13.22-8.58.04-.04.08-.08.11-.12,2.32-2.32,4.35-4.96,6.03-7.87.19-.31.37-.63.54-.96.24-.43.47-.85.68-1.3.46-.92.88-1.86,1.27-2.82.15-.36.29-.72.42-1.09,1.72-4.59,2.69-9.65,2.76-15.07l-24.47-.58ZM148.6,198.79l-13.06,28-.1.22c-.78,1.66-2.75,2.38-4.41,1.61-1.66-.78-2.38-2.76-1.61-4.42l6.77-14.52h0s6.38-13.69,6.38-13.69c.78-1.67,2.76-2.38,4.42-1.61,1.21.57,1.92,1.76,1.92,3.01,0,.47-.1.95-.31,1.4ZM150.44,190.3c-.47,0-.95-.1-1.41-.31-1.66-.77-2.38-2.75-1.61-4.41.57-1.21,1.76-1.92,3.02-1.92.47,0,.95.1,1.4.31,1.21.57,1.92,1.76,1.92,3.01,0,.47-.1.95-.31,1.41-.57,1.2-1.76,1.91-3.01,1.91ZM220.2,222.5l20.74-44.49c.78-1.66,2.76-2.38,4.42-1.61,1.21.57,1.92,1.76,1.92,3.01,0,.47-.1.95-.31,1.4l-20.75,44.5c-.78,1.66-2.75,2.38-4.42,1.61-1.66-.78-2.38-2.75-1.6-4.42ZM232.76,235.29c-1.66-.78-2.38-2.75-1.6-4.41l13.15-28.22c.78-1.66,2.75-2.38,4.41-1.61,1.21.57,1.92,1.76,1.92,3.01,0,.47-.1.95-.31,1.41l-13.15,28.21c-.78,1.66-2.75,2.38-4.42,1.61ZM223.91,149.35s-2.05,3.8,0,6.29c2.05,2.49-.05,5.32,28.89-1.34,23.91-5.51,25.28,6.18,32.6,5.95,2.61-.09,3.25-2.71,3.25-2.71-7.28-13.99-53.34-29.87-64.73-8.19ZM135.11,242.6c0,.23,0,.45.02.68h0l-.02-.68ZM135.11,242.6c0,.23,0,.45.02.68h0l-.02-.68ZM257.47,304.81c-.2.09-.4.19-.61.28.34-.15.68-.29,1.02-.46.36-.16.72-.32,1.08-.49-.5.23-.99.45-1.49.67ZM259.15,304.05c.17-.07.34-.15.5-.23.45-.2.89-.41,1.34-.63.5-.24.99-.48,1.49-.73-1.1.54-2.21,1.07-3.33,1.59ZM223.91,149.35s-2.05,3.8,0,6.29c2.05,2.49-.05,5.32,28.89-1.34,23.91-5.51,25.28,6.18,32.6,5.95,2.61-.09,3.25-2.71,3.25-2.71-7.28-13.99-53.34-29.87-64.73-8.19ZM263.81,205.34l5.86-15.52,16.04.65c-5.95-16.45-21.55-27.9-39.26-27.9-13.71,0-24.58,6.86-31.01,17.6-.77,1.28-1.48,2.62-2.12,4.01-.14.08-.29.16-.43.23-15.79-10.13-30.84-6.78-38.27-3.96-1.37-2.39-3-4.62-4.84-6.66-7-7.78-16.97-12.77-27.52-12.99h-.12c-.21,0-.42,0-.63,0-19.96,0-31.85,17.12-31.85,38.25,0,1.15.04,2.28.12,3.4.07,1.06.18,2.1.32,3.12.37,2.8.99,5.49,1.84,8.04.16.46.31.91.47,1.36.33.89.69,1.77,1.08,2.62.19.43.4.85.61,1.27.13.3.29.59.44.89.23.43.46.85.7,1.26l19.48-41.78c.77-1.67,2.75-2.38,4.41-1.61.02.02.05.02.08.04,1.16.58,1.84,1.75,1.84,2.97,0,.47-.1.95-.31,1.4l-2.82,6.04-.02.05h0s-17.91,38.41-17.91,38.41c-.09.2-.2.39-.33.56h0c2.75,3.04,6,5.5,9.69,7.25.35.17.71.33,1.06.48,1.13.48,2.3.9,3.51,1.25.47.13.95.26,1.43.37,0,0,.02,0,.03,0,.31.07.61.14.93.21.28.05.57.11.85.16,0,0,.02,0,.02,0,.3.05.6.1.9.15.12.02.25.02.37.04.5.07,1.02.12,1.55.17.32.02.64.05.96.06.5.03.99.05,1.48.05.14,0,.28.02.43.02.26,0,.51,0,.77,0h.06c.12,0,.23,0,.36-.02.05,0,.09,0,.14,0,.99-.04,1.96-.12,2.93-.24l-.33.05c.26-.03.51-.06.76-.09.26-.03.5-.07.76-.12.5-.09,1-.17,1.51-.27.25-.05.5-.1.75-.16.07-.02.14-.03.21-.05.18-.04.36-.08.53-.12.03,0,.07-.02.1-.03.22-.05.42-.1.63-.16h0c.24-.07.48-.14.72-.21.33-.09.66-.19.99-.3.07-.02.14-.05.22-.07.32-.11.64-.23.96-.34.11-.04.22-.09.32-.12.13-.05.26-.09.39-.14.03-.02.07-.02.1-.05.3-.12.59-.23.89-.36.19-.08.39-.16.58-.26.05-.02.09-.03.12-.05.26-.11.5-.23.75-.35.02,0,.02,0,.04-.02.03-.02.05-.03.09-.04.19-.09.38-.19.57-.29.05-.02.09-.05.14-.07.12-.06.25-.12.37-.19.39-.19.77-.41,1.15-.63.11-.06.22-.12.33-.19.12-.07.25-.15.37-.23.05-.03.1-.06.15-.09.09-.05.19-.11.28-.16.28-.18.56-.36.83-.54.09-.05.18-.11.26-.17.21-.13.42-.27.62-.43.07-.05.14-.1.21-.15.09-.05.17-.12.25-.19.08-.05.16-.1.23-.16.02,0,.03-.02.05-.03l.02-.02s.02-.02.03-.02c.08-.05.16-.11.23-.17.09-.06.18-.12.27-.21.07-.05.14-.1.21-.16.02-.02.03-.02.05-.04.26-.2.5-.4.75-.61.04-.02.07-.05.1-.09.04-.02.08-.05.12-.09.02-.02.05-.04.07-.06.19-.16.39-.33.57-.5,0,0,.02,0,.02-.02.02-.02.04-.04.06-.05.16-.14.33-.29.48-.43.02-.02.05-.04.07-.06.35-.31.69-.63,1.03-.98.2-.18.4-.38.58-.58.31-.32.61-.64.9-.96.07-.08.15-.16.23-.25.08-.08.15-.16.22-.24.16-.16.3-.33.43-.5.29-.33.56-.68.83-1.02.11-.13.22-.26.32-.4.16-.21.33-.43.49-.64,4.71-6.41,7.54-14.4,7.54-23.08,0-2.87-.33-5.66-.97-8.35.43-.18.87-.36,1.31-.51.45-.16.89-.32,1.35-.46.46-.14.92-.26,1.38-.38.27-.07.55-.14.83-.19,2.94-.65,6.06-.86,9.39-.58,3.83.33,7.54,1.29,11.03,2.77.34.15.69.3,1.03.46.34.16.68.32,1.02.49.09.04.16.09.25.12.59.3,1.17.62,1.75.95.06.04.13.08.19.12.26.15.52.3.78.47.18.11.36.23.54.34.14.09.28.17.42.26-.68,3.4-1.04,6.97-1.04,10.68,0,12.35,4.45,22.92,11.87,30.25.03.04.07.08.11.12,3.57,3.8,8.13,6.57,13.17,8.35.02,0,.02,0,.03,0,.16.05.31.11.47.16.37.14.75.26,1.13.39.3.1.61.19.91.28.31.09.61.18.92.26.31.08.61.16.93.23.31.08.62.15.94.22.32.08.63.14.95.19.32.06.64.12.96.17.32.05.64.1.97.15.64.09,1.3.17,1.96.23,1.32.13,2.67.19,4.05.19,2.14,0,4.24-.16,6.28-.46.29-.05.58-.09.87-.14h0c.99-.16,1.96-.37,2.93-.61.36-.09.73-.19,1.09-.29.3-.08.59-.16.88-.25.4-.12.78-.25,1.17-.38.05,0,.09-.02.13-.04.08-.02.16-.05.23-.09.12-.05.25-.09.37-.13.23-.08.45-.16.68-.24.09-.03.19-.07.29-.11,5.08-1.86,9.67-4.73,13.22-8.58.04-.04.08-.08.11-.12,2.32-2.32,4.35-4.96,6.03-7.87.19-.31.37-.63.54-.96.24-.43.47-.85.68-1.3.46-.92.88-1.86,1.27-2.82.15-.36.29-.72.42-1.09,1.72-4.59,2.69-9.65,2.76-15.07l-24.47-.58ZM148.6,198.79l-13.06,28-.1.22c-.78,1.66-2.75,2.38-4.41,1.61-1.66-.78-2.38-2.76-1.61-4.42l6.77-14.52h0s6.38-13.69,6.38-13.69c.78-1.67,2.76-2.38,4.42-1.61,1.21.57,1.92,1.76,1.92,3.01,0,.47-.1.95-.31,1.4ZM150.44,190.3c-.47,0-.95-.1-1.41-.31-1.66-.77-2.38-2.75-1.61-4.41.57-1.21,1.76-1.92,3.02-1.92.47,0,.95.1,1.4.31,1.21.57,1.92,1.76,1.92,3.01,0,.47-.1.95-.31,1.41-.57,1.2-1.76,1.91-3.01,1.91ZM220.2,222.5l20.74-44.49c.78-1.66,2.76-2.38,4.42-1.61,1.21.57,1.92,1.76,1.92,3.01,0,.47-.1.95-.31,1.4l-20.75,44.5c-.78,1.66-2.75,2.38-4.42,1.61-1.66-.78-2.38-2.75-1.6-4.42ZM232.76,235.29c-1.66-.78-2.38-2.75-1.6-4.41l13.15-28.22c.78-1.66,2.75-2.38,4.41-1.61,1.21.57,1.92,1.76,1.92,3.01,0,.47-.1.95-.31,1.41l-13.15,28.21c-.78,1.66-2.75,2.38-4.42,1.61ZM223.91,149.35s-2.05,3.8,0,6.29c2.05,2.49-.05,5.32,28.89-1.34,23.91-5.51,25.28,6.18,32.6,5.95,2.61-.09,3.25-2.71,3.25-2.71-7.28-13.99-53.34-29.87-64.73-8.19ZM135.11,242.6c0,.23,0,.45.02.68h0l-.02-.68ZM135.11,242.6c0,.23,0,.45.02.68h0l-.02-.68ZM119.99,226.53c-.09.2-.2.39-.33.56h0c2.75,3.04,6,5.5,9.69,7.25.35.17.71.33,1.06.48,1.13.48,2.3.9,3.51,1.25.47.13.95.26,1.43.37v-.16c.05-3.16.11-6.32.19-9.48l-.1.22c-.78,1.66-2.75,2.38-4.41,1.61-1.66-.78-2.38-2.76-1.61-4.42l6.77-14.52h0c.39-7.21.92-14.4,1.71-21.55l-17.91,38.4ZM142.13,160.8c-.21,0-.42,0-.63,0-19.96,0-31.85,17.12-31.85,38.25,0,1.15.04,2.28.12,3.4.07,1.06.18,2.1.32,3.12.37,2.8.99,5.49,1.84,8.04.16.46.31.91.47,1.36.33.89.69,1.77,1.08,2.62.19.43.4.85.61,1.27.13.3.29.59.44.89.23.43.46.85.7,1.26l19.48-41.78c.77-1.67,2.75-2.38,4.41-1.61.02.02.05.02.08.04.82-5.65,1.81-11.27,3.01-16.86h-.09ZM159.58,233.04c-.09.06-.19.12-.3.16.39-.19.77-.41,1.15-.63-.28.16-.57.32-.85.47ZM161,232.24c-.08.05-.16.1-.24.16.12-.07.25-.15.37-.23-.05.02-.09.05-.13.07ZM163.07,230.91c-.13.1-.27.19-.41.29.21-.13.42-.27.62-.43-.07.05-.14.1-.21.14ZM164.4,229.94s-.06.05-.09.08c.09-.06.18-.12.27-.21-.06.05-.12.09-.18.13ZM165.04,229.45c-.07.06-.13.12-.2.17.26-.2.5-.4.75-.61-.18.15-.36.3-.54.43ZM170.98,223.57c-.16.21-.33.42-.5.63.29-.33.56-.68.83-1.02-.1.13-.21.26-.33.4ZM231.74,242.98c-.31-.13-.63-.28-.93-.43-.31-.14-.61-.29-.91-.45-.61-.31-1.19-.64-1.77-.98-.3-.17-.57-.34-.86-.52-.73-.45-1.44-.93-2.14-1.44-.05-.03-.1-.07-.15-.11-.71-.52-1.41-1.07-2.09-1.65-.26-.22-.51-.43-.76-.67-.42-.36-.83-.75-1.23-1.14,3.57,3.8,8.13,6.57,13.17,8.35-.79-.3-1.58-.61-2.34-.96ZM248.31,246.43c-1.37,0-2.72-.06-4.05-.19,1.32.13,2.67.19,4.05.19,2.14,0,4.24-.16,6.28-.46-2.03.3-4.14.45-6.28.45ZM255.47,245.84c.99-.16,1.96-.37,2.93-.61-.96.23-1.94.43-2.93.61ZM257.47,304.81c-.2.09-.4.19-.61.28.34-.15.68-.29,1.02-.46.36-.16.72-.32,1.08-.49-.5.23-.99.45-1.49.67ZM261.54,244.32s.09-.02.13-.04c.08-.02.16-.05.23-.09-.12.04-.24.08-.37.12ZM259.15,304.05c.17-.07.34-.15.5-.23.45-.2.89-.41,1.34-.63.5-.24.99-.48,1.49-.73-1.1.54-2.21,1.07-3.33,1.59ZM262.7,243.91c-.14.05-.28.1-.42.16.23-.08.45-.16.68-.24-.09.03-.17.06-.26.09ZM275.65,235.92c-.23.22-.47.44-.71.65-.47.43-.97.85-1.47,1.25-.25.2-.5.4-.76.59-.26.19-.51.39-.77.57-.44.33-.9.64-1.36.95-.36.24-.71.47-1.08.68-.36.23-.72.44-1.09.65-.03.02-.06.03-.09.05-.57.32-1.15.63-1.74.92-.05.02-.09.04-.13.06-.58.29-1.17.57-1.77.82-.03.02-.06.02-.09.04-.31.13-.62.26-.94.39-.13.06-.27.12-.4.17,5.08-1.86,9.67-4.73,13.22-8.58-.27.27-.54.54-.82.78ZM135.11,242.6c0,.23,0,.45.02.68h0l-.02-.68ZM135.11,242.6c0,.23,0,.45.02.68h0l-.02-.68ZM119.99,226.53c-.09.2-.2.39-.33.56h0c2.75,3.04,6,5.5,9.69,7.25.35.17.71.33,1.06.48,1.13.48,2.3.9,3.51,1.25.47.13.95.26,1.43.37v-.16c.05-3.16.11-6.32.19-9.48l-.1.22c-.78,1.66-2.75,2.38-4.41,1.61-1.66-.78-2.38-2.76-1.61-4.42l6.77-14.52h0c.39-7.21.92-14.4,1.71-21.55l-17.91,38.4ZM142.13,160.8c-.21,0-.42,0-.63,0-19.96,0-31.85,17.12-31.85,38.25,0,1.15.04,2.28.12,3.4.07,1.06.18,2.1.32,3.12.37,2.8.99,5.49,1.84,8.04.16.46.31.91.47,1.36.33.89.69,1.77,1.08,2.62.19.43.4.85.61,1.27.13.3.29.59.44.89.23.43.46.85.7,1.26l19.48-41.78c.77-1.67,2.75-2.38,4.41-1.61.02.02.05.02.08.04.82-5.65,1.81-11.27,3.01-16.86h-.09ZM159.58,233.04c-.09.06-.19.12-.3.16.39-.19.77-.41,1.15-.63-.28.16-.57.32-.85.47ZM161,232.24c-.08.05-.16.1-.24.16.12-.07.25-.15.37-.23-.05.02-.09.05-.13.07ZM163.07,230.91c-.13.1-.27.19-.41.29.21-.13.42-.27.62-.43-.07.05-.14.1-.21.14ZM164.4,229.94s-.06.05-.09.08c.09-.06.18-.12.27-.21-.06.05-.12.09-.18.13ZM165.04,229.45c-.07.06-.13.12-.2.17.26-.2.5-.4.75-.61-.18.15-.36.3-.54.43ZM170.98,223.57c-.16.21-.33.42-.5.63.29-.33.56-.68.83-1.02-.1.13-.21.26-.33.4ZM231.74,242.98c-.31-.13-.63-.28-.93-.43-.31-.14-.61-.29-.91-.45-.61-.31-1.19-.64-1.77-.98-.3-.17-.57-.34-.86-.52-.73-.45-1.44-.93-2.14-1.44-.05-.03-.1-.07-.15-.11-.71-.52-1.41-1.07-2.09-1.65-.26-.22-.51-.43-.76-.67-.42-.36-.83-.75-1.23-1.14,3.57,3.8,8.13,6.57,13.17,8.35-.79-.3-1.58-.61-2.34-.96ZM248.31,246.43c-1.37,0-2.72-.06-4.05-.19,1.32.13,2.67.19,4.05.19,2.14,0,4.24-.16,6.28-.46-2.03.3-4.14.45-6.28.45ZM255.47,245.84c.99-.16,1.96-.37,2.93-.61-.96.23-1.94.43-2.93.61ZM257.47,304.81c.14-.05.27-.12.41-.18.36-.16.72-.32,1.08-.49-.5.23-.99.45-1.49.67ZM261.54,244.32s.09-.02.13-.04c.08-.02.16-.05.23-.09-.12.04-.24.08-.37.12ZM259.15,304.05c.17-.07.34-.15.5-.23.45-.2.89-.41,1.34-.63.5-.24.99-.48,1.49-.73-1.1.54-2.21,1.07-3.33,1.59ZM262.7,243.91c-.14.05-.28.1-.42.16.23-.08.45-.16.68-.24-.09.03-.17.06-.26.09ZM275.65,235.92c-.23.22-.47.44-.71.65-.47.43-.97.85-1.47,1.25-.25.2-.5.4-.76.59-.26.19-.51.39-.77.57-.44.33-.9.64-1.36.95-.36.24-.71.47-1.08.68-.36.23-.72.44-1.09.65-.03.02-.06.03-.09.05-.57.32-1.15.63-1.74.92-.05.02-.09.04-.13.06-.58.29-1.17.57-1.77.82-.03.02-.06.02-.09.04-.31.13-.62.26-.94.39-.13.06-.27.12-.4.17,5.08-1.86,9.67-4.73,13.22-8.58-.27.27-.54.54-.82.78ZM135.11,242.6c0,.23,0,.45.02.68h0l-.02-.68ZM135.11,242.6c0,.23,0,.45.02.68h0l-.02-.68ZM142.13,160.8c-.21,0-.42,0-.63,0-19.96,0-31.85,17.12-31.85,38.25,0,1.15.04,2.28.12,3.4.07,1.06.18,2.1.32,3.12.37,2.8.99,5.49,1.84,8.04.16.46.31.91.47,1.36.33.89.69,1.77,1.08,2.62.19.43.4.85.61,1.27.13.3.29.59.44.89.23.43.46.85.7,1.26l19.48-41.78c.77-1.67,2.75-2.38,4.41-1.61.02.02.05.02.08.04.82-5.65,1.81-11.27,3.01-16.86h-.09ZM119.99,226.53c-.09.2-.2.39-.33.56h0c2.75,3.04,6,5.5,9.69,7.25.35.17.71.33,1.06.48,1.13.48,2.3.9,3.51,1.25.47.13.95.26,1.43.37v-.16c.05-3.16.11-6.32.19-9.48l-.1.22c-.78,1.66-2.75,2.38-4.41,1.61-1.66-.78-2.38-2.76-1.61-4.42l6.77-14.52h0c.39-7.21.92-14.4,1.71-21.55l-17.91,38.4ZM159.58,233.04c-.09.06-.19.12-.3.16.39-.19.77-.41,1.15-.63-.28.16-.57.32-.85.47ZM161,232.24c-.08.05-.16.1-.24.16.12-.07.25-.15.37-.23-.05.02-.09.05-.13.07ZM163.07,230.91c-.13.1-.27.19-.41.29.21-.13.42-.27.62-.43-.07.05-.14.1-.21.14ZM164.4,229.94s-.06.05-.09.08c.09-.06.18-.12.27-.21-.06.05-.12.09-.18.13ZM165.04,229.45c-.07.06-.13.12-.2.17.26-.2.5-.4.75-.61-.18.15-.36.3-.54.43ZM170.98,223.57c-.16.21-.33.42-.5.63.29-.33.56-.68.83-1.02-.1.13-.21.26-.33.4ZM231.74,242.98c-.31-.13-.63-.28-.93-.43-.31-.14-.61-.29-.91-.45-.61-.31-1.19-.64-1.77-.98-.3-.17-.57-.34-.86-.52-.73-.45-1.44-.93-2.14-1.44-.05-.03-.1-.07-.15-.11-.71-.52-1.41-1.07-2.09-1.65-.26-.22-.51-.43-.76-.67-.42-.36-.83-.75-1.23-1.14,3.57,3.8,8.13,6.57,13.17,8.35-.79-.3-1.58-.61-2.34-.96ZM248.31,246.43c-1.37,0-2.72-.06-4.05-.19,1.32.13,2.67.19,4.05.19,2.14,0,4.24-.16,6.28-.46-2.03.3-4.14.45-6.28.45ZM255.47,245.84c.99-.16,1.96-.37,2.93-.61-.96.23-1.94.43-2.93.61ZM257.47,304.81c.14-.05.27-.12.41-.18.36-.16.72-.32,1.08-.49-.5.23-.99.45-1.49.67ZM259.15,304.05c.17-.07.34-.15.5-.23.45-.2.89-.41,1.34-.63.5-.24.99-.48,1.49-.73-1.1.54-2.21,1.07-3.33,1.59ZM261.54,244.32s.09-.02.13-.04c.08-.02.16-.05.23-.09-.12.04-.24.08-.37.12ZM262.7,243.91c-.14.05-.28.1-.42.16.23-.08.45-.16.68-.24-.09.03-.17.06-.26.09ZM275.65,235.92c-.23.22-.47.44-.71.65-.47.43-.97.85-1.47,1.25-.25.2-.5.4-.76.59-.26.19-.51.39-.77.57-.44.33-.9.64-1.36.95-.36.24-.71.47-1.08.68-.36.23-.72.44-1.09.65-.03.02-.06.03-.09.05-.57.32-1.15.63-1.74.92-.05.02-.09.04-.13.06-.58.29-1.17.57-1.77.82-.03.02-.06.02-.09.04-.31.13-.62.26-.94.39-.13.06-.27.12-.4.17,5.08-1.86,9.67-4.73,13.22-8.58-.27.27-.54.54-.82.78ZM135.11,242.6c0,.23,0,.45.02.68h0l-.02-.68Z"/>
  <g>
    <g>
      <path class="st0" d="M240.39,423.15c-6.17,9.25-34.56-4.05-27.58-10,5.09-3.87,33.39,1.28,27.58,10Z"/>
      <path class="st0" d="M299.82,413.87c-1.92,6.1-32.37,18.96-32.65,8.48-.3-11.11,34.92-17.37,32.65-8.48Z"/>
      <path class="st0" d="M403.13,427.19c-.08,1.52-.22,3.28-.71,4.87,0,.03-.02.05-.02.08-.38,1.2-.98,2.31-1.9,3.11-.06.05-.12.09-.19.13-.89.65-1.76,1.3-2.65,1.93-1.66.81-3.6,1.11-5.67.73-10.95-.91-9.87-17.57-23.67-29.87-13.8-12.31-34.49-13.11-44.46-18.19-10.6-3.48-18.61-10.69-24.77-20.26-9.92-15.41-15.03-36.95-18.33-58.91-8.64,15.81-39.17,37.29-47.09,42.69.6,10.48-.52,18.64-2.93,25.12-11.01,29.69-49.12,24.15-74,43.49-13.56,12.08-12.74,28.38-23.1,29.81-.18.04-.35.07-.53.09-2.51.4-4.95-.17-6.91-1.45-2.43-1.6-4.1-4.32-4.18-7.71,0-.09,0-.18,0-.27,0,0-.03-.03-.05-.05-.02-.02-.03-.03-.03-.03l.02-.02s.04-.04.05-.05c-.09-4.67,1.11-8.75,3.2-12.39h0c3.9-6.75,10.89-11.94,18.53-16.45.17-.1.34-.21.51-.31,1.33-.78,2.67-1.54,4.02-2.28.43-.24.85-.47,1.28-.68,12.76-6.56,26.83-11.23,36.66-14.75,0,0,.02,0,.03,0,.12-.05.25-.09.37-.13,11.07-1.67,19.05-6.28,24.61-12.73.19-.22.36-.43.54-.64.19-.24.39-.49.58-.74.19-.24.36-.47.54-.71.18-.24.36-.5.53-.75.36-.52.7-1.05,1.04-1.59.73-1.16,1.4-2.38,2-3.62,8.04-16.44,5.92-39.41-.27-58.24h0s0-.04-.02-.06c1.09-.12,2.17-.28,3.27-.43.03,0,.07,0,.1-.02,6.28-.92,12.5-2.25,18.61-3.99.89-.26,1.78-.52,2.66-.79.57-.18,1.15-.36,1.72-.54.57-.18,1.14-.36,1.72-.56.67-.23,1.34-.46,2-.69.71-.24,1.41-.5,2.1-.76.78-.29,1.58-.59,2.35-.89.68-.26,1.37-.54,2.05-.82,1.39-.56,2.76-1.15,4.13-1.76.34-.15.68-.29,1.02-.46.36-.16.72-.32,1.08-.49.06-.03.12-.05.19-.09.17-.07.34-.15.5-.23.45-.2.89-.41,1.34-.63.5-.24.99-.48,1.49-.73h0c.36-.19.74-.37,1.1-.56s.72-.37,1.09-.56c.65-.33,1.3-.68,1.94-1.03.6-.31,1.18-.63,1.77-.96.7-.39,1.4-.78,2.09-1.18.59-.34,1.17-.68,1.75-1.04.73-.43,1.46-.87,2.18-1.34,5.35-3.32,10.44-7.04,15.28-11.24.4,26.7,2.9,58.97,20.76,80.67,1.48,1.79,3.06,3.52,4.75,5.16,29.12,20.03,84.43,22.33,87.91,56.81Z"/>
      <path class="st0" d="M240.39,423.15c-6.17,9.25-34.56-4.05-27.58-10,5.09-3.87,33.39,1.28,27.58,10Z"/>
      <path class="st0" d="M299.82,413.87c-1.92,6.1-32.37,18.96-32.65,8.48-.3-11.11,34.92-17.37,32.65-8.48Z"/>
      <path class="st0" d="M402.42,432.06s-.02.05-.02.08c-.49,1.23-1.2,2.33-2.09,3.25-.76.79-1.65,1.45-2.65,1.93-1.66.81-3.6,1.11-5.67.73-10.95-.91-9.87-17.57-23.67-29.87-13.8-12.31-34.49-13.11-44.46-18.19-10.6-3.48-18.61-10.69-24.77-20.26-9.92-15.41-15.03-36.95-18.33-58.91-8.64,15.81-39.17,37.29-47.09,42.69.6,10.48-.52,18.64-2.93,25.12-11.01,29.69-49.12,24.15-74,43.49-13.56,12.08-12.74,28.38-23.1,29.81-.18.04-.35.07-.53.09-2.63.45-5.14-.09-6.87-1.41-.02-.02-.02-.02-.04-.04-2.32-2.55-3.65-5.13-4.18-7.71-.02-.11-.05-.22-.06-.33,0-.02,0-.04,0-.05-.75-4.25.64-8.47,3.25-12.44h0c4.28-6.52,11.83-12.35,18.53-16.45.17-.1.34-.21.51-.31.86-.52,1.71-1.01,2.52-1.47.5-.28.99-.55,1.5-.81.43-.24.85-.47,1.28-.68,11.87-6.2,25.45-10.88,36.66-14.75,0,0,.02,0,.03,0,11.3-1.61,19.4-6.29,24.98-12.86.19-.22.36-.43.54-.64.19-.24.39-.49.58-.74.19-.24.36-.47.54-.71.18-.24.36-.5.53-.75.36-.52.7-1.05,1.04-1.59.72-1.16,1.38-2.38,1.99-3.63,7.96-16.46,5.83-39.45-.26-58.23h0s0-.04-.02-.06c1.09-.12,2.17-.28,3.27-.43.03,0,.07,0,.1-.02,6.28-.92,12.5-2.25,18.61-3.99.89-.26,1.78-.52,2.66-.79.57-.18,1.15-.36,1.72-.54.57-.18,1.14-.36,1.72-.56.67-.23,1.34-.46,2-.69.71-.24,1.41-.5,2.1-.76.78-.29,1.58-.59,2.35-.89.68-.26,1.37-.54,2.05-.82,1.39-.56,2.76-1.15,4.13-1.76.34-.15.68-.29,1.02-.46.36-.16.72-.32,1.08-.49.06-.03.12-.05.19-.09.17-.07.34-.15.5-.23.45-.2.89-.41,1.34-.63.5-.24.99-.48,1.49-.73h0c.36-.19.74-.37,1.1-.56s.72-.37,1.09-.56c.65-.33,1.3-.68,1.94-1.03.6-.31,1.18-.63,1.77-.96.7-.39,1.4-.78,2.09-1.18.59-.34,1.17-.68,1.75-1.04.73-.43,1.46-.87,2.18-1.34,5.35-3.32,10.44-7.04,15.28-11.24.4,26.7,2.9,58.97,20.76,80.67,1.48,1.79,3.06,3.52,4.75,5.16,29.12,20.03,84.43,22.33,87.91,56.81.15,1.72-.12,3.39-.71,4.87Z"/>
      <path class="st0" d="M135.11,242.6c0,.23,0,.45.02.68h0l-.02-.68ZM181.14,221.83c-8.11,5.25-1.84,18.19,3.25,18.19,2.37,0,4.11-3.49,4.11-3.49,0,0,1.75,4.63,7.38,3.14,11.8-3.42-6.62-23.1-14.74-17.84ZM214.15,274.6c-.15-.85-6.55-5.33-13.01-13.61-5.93-7.61-19.55-9.68-27.08,2.59-1.2,1.95-2.65,3.73-4.24,5.37-2.59,2.68,1.36,4.12,5.51,5.8-.75,3.69,1.25,8.64,4.43,10.72,11.83,7.73,33.41-3.72,20.93-6.64-1.17-.27-2.4-.23-3.58.02-7.04,1.46-23.51-4.55-9.53-7.1,4.67-.7,27.83,9.94,26.57,2.86ZM215.76,316.38c.13-.02.26-.03.39-.05.89-.1,1.78-.21,2.67-.33.12-.02.23-.03.36-.05.08,0,.16-.02.24-.04.03,0,.07,0,.1-.02.51-.09,1.03-.17,1.55-.26,1.44-.26,2.91-.54,4.41-.85l-9.72,1.6ZM219.52,315.89c6.27-.87,12.5-2.22,18.61-3.99-6.11,1.74-12.33,3.08-18.61,3.99ZM238.29,311.6c1.65-.47,3.31-.99,4.98-1.54-1.67.54-3.33,1.06-4.98,1.54ZM316.18,244.23c-.09.67-.09,1.23,0,1.67-.09-.44-.09-1,0-1.67ZM316.23,246.11h0s2.28,1.23,5.13,1.14c-1.47-.02-3.16-.37-5.13-1.14ZM328.34,243.33c.66-.93,1.27-2.07,1.82-3.44,1.3-3.32,1.7-5.58,2.08-7.44-.95,3.55-1.89,7.84-3.9,10.88ZM182.79,149.78c-8.49-14.44-25.78-10.56-37.34-3.63-.72,2.46-1.37,5-1.93,7.62.03,0,.05,0,.08,0,7.15,0,11.31-3.35,16.66-1.21,13.88,5.52,20.05,5.89,22.22,3.5,2.17-2.39.3-6.28.3-6.28ZM223.91,149.35s-2.05,3.8,0,6.29c2.05,2.49-.05,5.32,28.89-1.34,23.91-5.51,25.28,6.18,32.6,5.95,2.61-.09,3.25-2.71,3.25-2.71-7.28-13.99-53.34-29.87-64.73-8.19ZM332,161.95c-3.27-.71-4.64-1.93-4.93-3.21-.44-2.01,1.82-4.15,3.75-4.58-.54-2.97-1.19-5.91-1.96-8.8-.16-.59-.32-1.18-.49-1.77-6.8-1.76-14.77-4.41-19.9-7.96-10.49-7.26-13.74-14.04-14.32-16.4-3.75-15.34,13.64,1.37,31.29,15.62-7.5-19.17-21.32-35.08-44.81-43-.54-.13-1.09-.27-1.63-.4-45.84-11.04-86.06-5.99-111.15,17.32,6.63-.13,13.6-.68,18.42-2.14,12.04-3.63,25.49-18.56,38.27-13.43,0,0,.03.02.09.05.02,0,.05.02.07.04.7.44,3.56,2.4,3.56,4.71,0,.48-.12.98-.42,1.48-4.32,7.42-23.3,15.23-51.79,13.36-.56-.04-1.12-.07-1.68-.12-3.4-.29-6.57-.68-9.43-1.09-4.76,4.93-8.9,10.6-12.35,17.01,52.05,12.28,95.35.22,120.58-27.4-3.12,8.53-2.55,18.48,2.48,27.09,6.99,11.93,20.01,23.16,39.68,28.13,1.73,10.79,5.99,27.47,16.14,35.87l-45.74-1.86c-5.95-16.45-21.55-27.9-39.26-27.9-13.71,0-24.58,6.86-31.01,17.6-.77,1.28-1.48,2.62-2.12,4.01-.14.08-.29.16-.43.23-15.79-10.13-30.84-6.78-38.27-3.96-1.37-2.39-3-4.62-4.84-6.66-7-7.78-16.97-12.77-27.52-12.99h-.04c-1.2,5.59-2.19,11.21-3.01,16.86,1.16.58,1.84,1.75,1.84,2.97,0,.47-.1.95-.31,1.4l-2.82,6.04-.02.05h0c-.78,7.16-1.32,14.34-1.71,21.55l6.38-13.68c.78-1.67,2.76-2.38,4.42-1.61,1.21.57,1.92,1.76,1.92,3.01,0,.47-.1.95-.31,1.4l-13.06,28c-.08,3.16-.14,6.32-.19,9.48v.16s.02,0,.03,0c.31.07.61.14.93.21.28.05.57.11.85.16,0,0,.02,0,.02,0,.3.05.6.1.9.15.12.02.25.02.37.04.5.07,1.02.12,1.55.17.32.02.64.05.96.06.5.03.99.05,1.48.05.14,0,.28.02.43.02.26,0,.51,0,.77,0h.06c.12,0,.23,0,.36-.02.05,0,.09,0,.14,0,.99-.04,1.96-.12,2.93-.24l-.33.05c.26-.03.51-.06.76-.09.26-.03.5-.07.76-.12.5-.09,1-.17,1.51-.27.25-.05.5-.1.75-.16.07-.02.14-.03.21-.05.18-.04.36-.08.53-.12.03,0,.07-.02.1-.03.22-.05.42-.1.63-.16h0c.24-.07.48-.14.72-.21.33-.09.66-.19.99-.3.07-.02.14-.05.22-.07.32-.11.64-.23.96-.34.11-.04.22-.09.32-.12.13-.05.26-.09.39-.14.03-.02.07-.02.1-.05.3-.12.59-.23.89-.36.19-.08.39-.16.58-.26.05-.02.09-.03.12-.05.26-.11.5-.23.75-.35.02,0,.02,0,.04-.02.03-.02.05-.03.09-.04.19-.09.38-.19.57-.29.05-.02.09-.05.14-.07.12-.06.25-.12.37-.19.39-.19.77-.41,1.15-.63.11-.06.22-.12.33-.19.12-.07.25-.15.37-.23.05-.03.1-.06.15-.09.09-.05.19-.11.28-.16.28-.18.56-.36.83-.54.09-.05.18-.11.26-.17.21-.13.42-.27.62-.43.07-.05.14-.1.21-.15.09-.05.17-.12.25-.19.08-.05.16-.1.23-.16.02,0,.03-.02.05-.03l.02-.02s.02-.02.03-.02c.08-.05.16-.11.23-.17.09-.06.18-.12.27-.21.07-.05.14-.1.21-.16.02-.02.03-.02.05-.04.26-.2.5-.4.75-.61.04-.02.07-.05.1-.09.04-.02.08-.05.12-.09.02-.02.05-.04.07-.06.19-.16.39-.33.57-.5,0,0,.02,0,.02-.02.02-.02.04-.04.06-.05.16-.14.33-.29.48-.43.02-.02.05-.04.07-.06.35-.31.69-.63,1.03-.98.2-.18.4-.38.58-.58.31-.32.61-.64.9-.96.07-.08.15-.16.23-.25.08-.08.15-.16.22-.24.16-.16.3-.33.43-.5.17-.21.35-.42.5-.63.12-.13.23-.26.33-.4.11-.13.22-.26.32-.4.16-.21.33-.43.49-.64,4.71-6.41,7.54-14.4,7.54-23.08,0-2.87-.33-5.66-.97-8.35.43-.18.87-.36,1.31-.51.45-.16.89-.32,1.35-.46.46-.14.92-.26,1.38-.38.27-.07.55-.14.83-.19,2.94-.65,6.06-.86,9.39-.58,3.83.33,7.54,1.29,11.03,2.77.34.15.69.3,1.03.46.34.16.68.32,1.02.49.09.04.16.09.25.12.59.3,1.17.62,1.75.95.06.04.13.08.19.12.26.15.52.3.78.47.18.11.36.23.54.34.14.09.28.17.42.26-.68,3.4-1.04,6.97-1.04,10.68,0,12.35,4.45,22.92,11.87,30.25.03.04.07.08.11.12,3.57,3.8,8.13,6.57,13.17,8.35.02,0,.02,0,.03,0,.16.05.31.11.47.16.37.14.75.26,1.13.39.3.1.61.19.91.28.31.09.61.18.92.26.31.08.61.16.93.23.31.08.62.15.94.22.32.08.63.14.95.19.32.06.64.12.96.17.32.05.64.1.97.15.64.09,1.3.17,1.96.23,1.32.13,2.67.19,4.05.19,2.14,0,4.24-.16,6.28-.46.29-.05.58-.09.87-.14h0c.99-.16,1.96-.37,2.93-.61.36-.09.73-.19,1.09-.29.3-.08.59-.16.88-.25.4-.12.78-.25,1.17-.38.05,0,.09-.02.13-.04.08-.02.16-.05.23-.09.12-.05.25-.09.37-.13.23-.08.45-.16.68-.24.09-.03.19-.07.29-.11,5.08-1.86,9.67-4.73,13.22-8.58.04-.04.08-.08.11-.12,2.32-2.32,4.35-4.96,6.03-7.87.19-.31.37-.63.54-.96.24-.43.47-.85.68-1.3.46-.92.88-1.86,1.27-2.82.15-.36.29-.72.42-1.09,1.72-4.59,2.69-9.65,2.76-15.07l43.11,1.03h0s0,0,0,0c.57-4.46,1.01-9.02,1.3-13.65h0c.03-.3.05-.6.05-.9.61-10.06.48-20.38-.74-30.43ZM150.44,190.3c-.47,0-.95-.1-1.41-.31-1.66-.77-2.38-2.75-1.61-4.41.57-1.21,1.76-1.92,3.02-1.92.47,0,.95.1,1.4.31,1.21.57,1.92,1.76,1.92,3.01,0,.47-.1.95-.31,1.41-.57,1.2-1.76,1.91-3.01,1.91ZM220.2,222.5l20.74-44.49c.78-1.66,2.76-2.38,4.42-1.61,1.21.57,1.92,1.76,1.92,3.01,0,.47-.1.95-.31,1.4l-20.75,44.5c-.78,1.66-2.75,2.38-4.42,1.61-1.66-.78-2.38-2.75-1.6-4.42ZM232.76,235.29c-1.66-.78-2.38-2.75-1.6-4.41l13.15-28.22c.78-1.66,2.75-2.38,4.41-1.61,1.21.57,1.92,1.76,1.92,3.01,0,.47-.1.95-.31,1.41l-13.15,28.21c-.78,1.66-2.75,2.38-4.42,1.61ZM333.54,228.45c.25-.47.56-.95.94-1.45.21-.28.43-.5.64-.68-.64.4-1.13,1.15-1.58,2.14ZM341.14,229.3c-1.03-1.13-1.93-1.93-2.72-2.47,1.12,1.03,2.07,2.48,2.72,2.48,1.04,0,1.94-.12,2.7-.47-.76.35-1.67.46-2.7.47Z"/>
    </g>
    <g>
      <path class="st0" d="M187.59,271.75c-13.99,2.55,2.49,8.56,9.53,7.1,1.18-.24,2.41-.29,3.58-.02,12.48,2.92-9.09,14.37-20.93,6.64-3.18-2.08-5.17-7.04-4.43-10.72-4.15-1.68-8.1-3.12-5.51-5.8,1.59-1.64,3.04-3.42,4.24-5.37,7.52-12.27,21.14-10.2,27.08-2.59,6.46,8.29,12.86,12.77,13.01,13.61,1.27,7.08-21.9-3.56-26.57-2.86Z"/>
      <path class="st0" d="M195.88,239.67c-5.63,1.49-7.38-3.14-7.38-3.14,0,0-1.74,3.49-4.11,3.49-5.09,0-11.36-12.94-3.25-18.19,8.11-5.26,26.54,14.42,14.74,17.84Z"/>
    </g>
    <path class="st0" d="M138.46,237c-.12-.02-.25-.02-.37-.04-.3-.05-.61-.09-.9-.15,0,0-.02,0-.02,0-.29-.05-.57-.1-.85-.16-.32-.07-.62-.14-.93-.21,0,0-.02,0-.03,0h0c.54.12,1.09.23,1.64.33.19.04.37.07.57.1.3.05.6.09.91.13Z"/>
    <path class="st0" d="M144.07,237.28c-.12,0-.24.02-.36.02h-.06c-.26,0-.51,0-.77,0-.15,0-.29-.02-.43-.02.42,0,.84,0,1.26,0,.12,0,.24,0,.36,0Z"/>
    <path class="st0" d="M140.97,237.24c.49.03.98.05,1.48.05-.49,0-.99-.03-1.48-.05Z"/>
    <path class="st0" d="M140,237.17c.32.03.64.05.97.07-.32-.02-.65-.04-.97-.07Z"/>
    <path class="st0" d="M138.46,237c.51.07,1.03.12,1.55.17-.52-.04-1.03-.1-1.55-.17Z"/>
    <path class="st0" d="M148.33,236.87c-.26.05-.5.09-.76.12-.25.03-.5.06-.76.09l.33-.05c.4-.05.8-.1,1.2-.16Z"/>
    <path class="st0" d="M151.42,236.23s-.07.02-.1.03c-.17.05-.35.09-.53.12.21-.05.42-.1.63-.16Z"/>
    <path class="st0" d="M154.94,235.15c-.32.12-.64.23-.96.34-.08.02-.15.05-.22.07-.33.11-.65.21-.99.3.73-.22,1.44-.46,2.16-.71Z"/>
    <path class="st0" d="M158.78,233.47c-.19.1-.37.19-.57.29-.03,0-.05.02-.09.04-.02,0-.02.02-.04.02.02,0,.02-.02.04-.02.22-.1.43-.21.65-.32Z"/>
    <path class="st0" d="M162.39,231.37c-.27.19-.55.36-.83.54-.09.05-.19.11-.28.16-.05.03-.1.06-.15.09-.12.08-.25.16-.37.23-.11.06-.22.12-.33.19-.38.22-.76.43-1.15.63.1-.05.2-.1.3-.16.48-.26.96-.53,1.42-.81.47-.28.93-.57,1.39-.87Z"/>
    <path class="st0" d="M163.74,230.43c-.08.07-.16.13-.25.19-.07.05-.14.1-.21.15-.2.16-.41.3-.62.43-.09.06-.18.12-.26.17.23-.15.45-.3.68-.46.23-.16.45-.31.67-.47Z"/>
    <path class="st0" d="M163.97,230.27s.05-.04.07-.05l-.02.02s-.03.02-.05.03Z"/>
    <path class="st0" d="M164.58,229.81c-.09.09-.18.15-.27.21.03-.02.06-.05.09-.08.06-.04.12-.09.18-.13Z"/>
    <path class="st0" d="M165.59,229.01c-.24.21-.49.4-.75.61-.02.02-.04.02-.05.04-.07.05-.14.11-.21.16.16-.12.31-.24.47-.36.19-.14.36-.29.54-.43Z"/>
    <path class="st0" d="M168.11,226.73c-.33.35-.68.67-1.03.98.35-.32.69-.64,1.03-.98Z"/>
    <path class="st0" d="M170.98,223.57c-.16.21-.33.42-.5.63-.14.17-.28.33-.43.5-.07.09-.14.16-.22.24.39-.44.78-.9,1.16-1.37Z"/>
    <path class="st0" d="M184.14,189.02c-.19.04-.39.09-.58.13-.28.05-.56.12-.83.19-.47.12-.92.24-1.38.38-.46.14-.9.29-1.35.46-.44.16-.88.33-1.31.51h0c1.73-.74,3.56-1.3,5.46-1.68Z"/>
    <path class="st0" d="M209.97,194.54h0c-.14-.09-.28-.17-.42-.26l.42.26Z"/>
    <path class="st0" d="M234.58,244.12c-.16-.05-.32-.11-.47-.16,0,0-.02,0-.03,0-5.04-1.78-9.6-4.55-13.17-8.35-.04-.04-.08-.08-.11-.12.43.43.89.85,1.34,1.26.25.23.5.45.76.67.68.57,1.37,1.12,2.09,1.65.05.04.09.08.15.11.69.5,1.41.98,2.14,1.44.29.18.57.35.86.52.58.34,1.16.67,1.77.98.3.16.6.3.91.45.3.16.62.3.93.43.93.41,1.87.79,2.84,1.13Z"/>
    <path class="st0" d="M262.7,243.91c-.14.05-.28.1-.42.16-.12.04-.25.09-.37.13-.12.04-.24.08-.37.12-.39.13-.78.26-1.17.38-.29.09-.58.17-.88.25-.36.1-.73.19-1.09.29-.96.23-1.94.43-2.93.61h0c-.29.05-.58.09-.87.14-2.03.3-4.14.45-6.28.45-1.37,0-2.72-.06-4.05-.19-.66-.06-1.32-.14-1.96-.23-.33-.05-.65-.09-.97-.15-.33-.05-.64-.11-.96-.17-.32-.05-.63-.12-.95-.19-.32-.07-.63-.14-.94-.22-.32-.08-.62-.16-.93-.23-.31-.09-.61-.17-.92-.26-.3-.09-.61-.18-.91-.28-.38-.12-.76-.25-1.13-.39,8.91,3.01,19.22,2.92,28.12-.21Z"/>
    <path class="st0" d="M276.58,235.02s-.07.08-.11.12c-3.56,3.85-8.15,6.72-13.22,8.58-.1.04-.19.08-.29.11-.09.03-.17.06-.26.09.32-.12.64-.24.95-.36.32-.12.63-.26.94-.39.03-.02.06-.02.09-.04.6-.26,1.19-.54,1.77-.82.04-.02.09-.04.13-.06.59-.29,1.16-.61,1.74-.92.02-.02.05-.03.09-.05.37-.21.74-.43,1.09-.65.37-.22.72-.44,1.08-.68.46-.3.92-.61,1.36-.95.26-.18.51-.37.77-.57.26-.19.51-.39.76-.59.5-.4.99-.82,1.47-1.25.24-.21.48-.43.71-.65.31-.3.62-.6.92-.9Z"/>
    <path class="st0" d="M285.05,222.2c.37-.92.72-1.86,1.04-2.81-.32.96-.66,1.89-1.04,2.81Z"/>
    <rect class="st0" x="288.27" y="206.42" width="43.12" height="0"/>
    <g>
      <path class="st0" d="M288.64,157.54s-.64,2.62-3.25,2.71c-7.32.23-8.69-11.45-32.6-5.95-28.94,6.65-26.84,3.82-28.89,1.34-2.05-2.49,0-6.29,0-6.29,11.39-21.67,57.45-5.8,64.73,8.19Z"/>
      <path class="st0" d="M182.48,156.06c-2.17,2.38-8.35,2.02-22.22-3.5-5.36-2.14-9.51,1.21-16.66,1.21-.02,0-.05,0-.08,0-1.62-.08-4.64-2.83-4.64-2.83,1.82-1.64,4.06-3.28,6.57-4.79,11.55-6.93,28.85-10.8,37.34,3.63,0,0,1.86,3.89-.3,6.28Z"/>
    </g>
    <g>
      <path class="st0" d="M282.84,87.85c-18.61-31.64-41.48-32.04-70.12-29.9-28.74,2.16-64.65,28.44-70.14,68.07,3.36.97,6.69,1.85,9.99,2.62,52.05,12.28,95.35.22,120.58-27.4,2.71-2.96,5.2-6.1,7.48-9.4.84-1.2,1.64-2.43,2.41-3.68-.06-.1-.12-.21-.19-.31ZM227.82,99.48c-4.32,7.42-23.3,15.23-51.79,13.36-.56-.04-1.12-.07-1.68-.12-3.4-.29-6.57-.68-9.43-1.09-9.85-1.46-16.18-3.39-16.18-3.39,0,0,9.17.72,19.11.51,6.63-.13,13.6-.68,18.42-2.14,12.04-3.63,25.49-18.56,38.27-13.43,0,0,.03.02.09.05.02,0,.05.02.07.04.7.44,3.56,2.4,3.56,4.71,0,.48-.12.98-.42,1.48Z"/>
      <path class="st0" d="M291.04,83.34c-3.06,1.1-5.8,2.63-8.2,4.5-1.41,1.09-2.69,2.3-3.85,3.6-2.56,2.87-4.53,6.2-5.85,9.8-3.12,8.53-2.55,18.48,2.48,27.09,6.99,11.93,20.01,23.16,39.68,28.13,1.67.43,3.39.81,5.16,1.13,2.35.43,4.55.82,6.6,1.14-.44-2.01,1.82-4.15,3.75-4.58.13-.03.26-.05.39-.06,3.67-.37,12.99,4,17.55,6.27h0c2.42-.16,4.21-.47,5.65-.82,2.28-.55,3.63-1.2,4.99-1.44,7.06-15.69-29.97-88.58-68.36-74.76ZM294.15,119.23c-3.75-15.34,13.64,1.37,31.29,15.62h0c5.47,4.41,10.95,8.58,15.84,11.48,0,0-5.82-.89-12.91-2.74-6.8-1.76-14.77-4.41-19.9-7.96-10.49-7.26-13.74-14.04-14.32-16.4Z"/>
      <path class="st0" d="M354.41,159.54c-4.38-7.66-12.17-13.47-25.55-14.19-4.29-.23-9.18.06-14.71.99,0,0,.19,4.16,1.16,10.11,1.73,10.79,5.99,27.47,16.14,35.87.4.33.81.65,1.23.95h0c.05.05.11.09.16.12.57.41,1.16.79,1.77,1.15,18.72,10.96,22.46,8.21,22.46,8.21,0,0,7.07-26.2-2.67-43.21ZM332,161.95c-3.27-.71-4.64-1.93-4.93-3.21-.44-2.01,1.82-4.15,3.75-4.58.13-.03.26-.05.39-.06,3.67-.37,12.99,4,17.55,6.27h0c1.58.78,2.58,1.32,2.58,1.32-9.59,1.2-15.66,1.06-19.34.26Z"/>
    </g>
    <path class="st0" d="M346.52,221.07c0,.44,0,.86-.02,1.27,0,.17-.02.33-.02.5-.02.22-.03.43-.05.64-.02.17-.03.35-.05.51-.03.27-.06.52-.1.76-.02.13-.05.26-.07.37-.08.4-.17.75-.27,1.07-.07.22-.15.42-.23.61-.13.29-.27.56-.43.79-.05.09-.12.16-.18.24-.23.29-.47.52-.75.71-.06.05-.13.09-.2.12-.1.06-.21.12-.32.17-.76.36-1.66.47-2.7.47-.65,0-1.6-1.44-2.72-2.48-.99-.92-2.11-1.51-3.29-.53,0,0,0,0,0,0-.21.18-.43.4-.64.68-.38.5-.69.99-.94,1.45,0,0-.02.02,0,.03-.71,1.29-.99,2.51-1.3,3.97h0c-.38,1.87-.78,4.13-2.08,7.45-.54,1.37-1.16,2.51-1.82,3.44-.02.02-.03.04-.04.06-2.03,2.8-4.48,3.72-6.65,3.85-.1,0-.19,0-.29,0-2.84.09-5.13-1.13-5.13-1.13h0c-.02-.08-.04-.15-.05-.23-.09-.44-.09-1,0-1.67h0c.06-.5.17-1.06.33-1.67.16-.61.36-1.28.61-2,.36-1.05.82-2.2,1.36-3.42.11-.26.23-.5.34-.75.3-.68.63-1.37.99-2.07.09-.18.18-.36.27-.54.63-1.25,1.34-2.55,2.1-3.89.17-.3.33-.58.5-.87.34-.58.69-1.16,1.05-1.75.18-.29.36-.59.55-.89.37-.59.75-1.19,1.14-1.79.58-.9,1.19-1.81,1.82-2.71.19-.27.38-.54.58-.79.13-.19.28-.36.42-.54.02-.03.05-.05.07-.09.09-.11.17-.21.26-.31.58-.68,1.19-1.28,1.8-1.82.49-.43.99-.81,1.49-1.16.12-.09.26-.16.38-.25.12-.08.26-.16.38-.23.12-.08.26-.15.38-.22.13-.08.26-.14.38-.21.63-.33,1.26-.59,1.89-.8.02,0,.04-.02.06-.02.12-.04.23-.08.35-.11.38-.12.76-.21,1.13-.29.37-.07.75-.12,1.11-.16.12-.02.25-.02.36-.03.64-.05,1.26-.03,1.85.04.14,0,.27.03.4.05.12.02.24.04.36.06.12.02.24.05.36.08.47.11.92.26,1.35.43.5.21.96.47,1.37.76.09.07.19.14.29.22.19.15.38.31.54.48.08.07.16.15.23.23.07.09.14.16.21.25.06.07.12.16.18.23.38.51.67,1.09.85,1.72.02.05.03.12.05.17.03.12.06.24.08.36.05.21.07.43.09.64.02.16.02.32.02.48Z"/>
    <path class="st0" d="M225.48,314.78c1.04-.21,2.08-.43,3.15-.67-1.05.23-2.08.46-3.11.67h-.04Z"/>
    <path class="st0" d="M225.48,314.78c-1.5.3-2.97.59-4.41.85-.52.09-1.04.18-1.55.26-.03,0-.07,0-.1.02-.08.02-.16.03-.24.04-.12.02-.24.04-.36.05-.89.15-1.78.28-2.65.4h0c-.82.12-1.64.23-2.44.32l2.03-.33h0l9.72-1.6Z"/>
    <path class="st0" d="M243.27,310.07c-1.67.55-3.33,1.06-4.98,1.54,1.65-.48,3.31-.99,4.98-1.54Z"/>
    <g>
      <path class="st0" d="M135.13,243.28h0c-.02-.23-.02-.45-.02-.68l.02.68Z"/>
      <path class="st0" d="M178.68,190.7h0c-.11-.47-.22-.91-.34-1.35-.25-.9-.52-1.78-.83-2.65-.14-.39-.28-.78-.43-1.16-.33-.84-.68-1.66-1.08-2.47-.16-.34-.33-.68-.5-1.01-.28-.54-.57-1.08-.88-1.61-1.37-2.39-3-4.62-4.84-6.66-7-7.78-16.97-12.77-27.52-12.99h-.12c-.21,0-.42,0-.63,0-19.96,0-31.85,17.12-31.85,38.25,0,1.15.04,2.28.12,3.4.07,1.06.18,2.1.32,3.12.37,2.8.99,5.49,1.84,8.04.16.46.31.91.47,1.36.33.89.69,1.77,1.08,2.62.19.43.4.85.61,1.27.13.3.29.59.44.89.23.43.46.85.7,1.26l19.48-41.78c.77-1.67,2.75-2.38,4.41-1.61.02.02.05.02.08.04,1.16.58,1.84,1.75,1.84,2.97,0,.47-.1.95-.31,1.4l-2.82,6.04-.02.05h0s-17.91,38.41-17.91,38.41c-.09.2-.2.39-.33.56h0c2.75,3.04,6,5.5,9.69,7.25.35.17.71.33,1.06.48,1.13.48,2.3.9,3.51,1.25.47.13.95.26,1.43.37,0,0,.02,0,.03,0,.31.07.61.14.93.21.28.05.57.11.85.16,0,0,.02,0,.02,0,.3.05.6.1.9.15.12.02.25.02.37.04.5.07,1.02.12,1.55.17.32.02.64.05.96.06.5.03.99.05,1.48.05.14,0,.28.02.43.02.26,0,.51,0,.77,0h.06c.12,0,.23,0,.36-.02.05,0,.09,0,.14,0,.99-.04,1.96-.12,2.93-.24l-.33.05c.26-.03.51-.06.76-.09.26-.03.5-.07.76-.12.5-.09,1-.17,1.51-.27.25-.05.5-.1.75-.16.07-.02.14-.03.21-.05.18-.04.36-.08.53-.12.03,0,.07-.02.1-.03.22-.05.42-.1.63-.16h0c.24-.07.48-.14.72-.21.33-.09.66-.19.99-.3.07-.02.14-.05.22-.07.32-.11.64-.23.96-.34.11-.04.22-.09.32-.12.13-.05.26-.09.39-.14.03-.02.07-.02.1-.05.3-.12.59-.23.89-.36.19-.08.39-.16.58-.26.05-.02.09-.03.12-.05.26-.11.5-.23.75-.35.02,0,.02,0,.04-.02.03-.02.05-.03.09-.04.19-.09.38-.19.57-.29.05-.02.09-.05.14-.07.12-.06.25-.12.37-.19.1-.05.2-.1.3-.16.29-.15.57-.3.85-.47.11-.06.22-.12.33-.19.08-.05.16-.1.24-.16.05-.02.09-.05.13-.07.05-.03.1-.06.15-.09.09-.05.19-.11.28-.16.28-.18.56-.36.83-.54.09-.05.18-.11.26-.17.14-.09.28-.19.41-.29.07-.04.14-.09.21-.14.07-.05.14-.1.21-.15.09-.05.17-.12.25-.19.08-.05.16-.1.23-.16.02,0,.03-.02.05-.03l.02-.02s.02-.02.03-.02c.08-.05.16-.11.23-.17.03-.02.06-.05.09-.08.06-.04.12-.09.18-.13.07-.05.14-.1.21-.16.02-.02.03-.02.05-.04.07-.05.13-.11.2-.17.19-.14.36-.29.54-.43.04-.02.07-.05.1-.09.04-.02.08-.05.12-.09.02-.02.05-.04.07-.06.19-.16.39-.33.57-.5,0,0,.02,0,.02-.02.02-.02.04-.04.06-.05.16-.14.33-.29.48-.43.02-.02.05-.04.07-.06.35-.31.69-.63,1.03-.98.2-.18.4-.38.58-.58.31-.32.61-.64.9-.96.07-.08.15-.16.23-.25.08-.08.15-.16.22-.24.16-.16.3-.33.43-.5.17-.21.35-.42.5-.63.12-.13.23-.26.33-.4.11-.13.22-.26.32-.4.16-.21.33-.43.49-.64,4.71-6.41,7.54-14.4,7.54-23.08,0-2.87-.33-5.66-.97-8.35ZM148.6,198.79l-13.06,28-.1.22c-.78,1.66-2.75,2.38-4.41,1.61-1.66-.78-2.38-2.76-1.61-4.42l6.77-14.52h0s6.38-13.69,6.38-13.69c.78-1.67,2.76-2.38,4.42-1.61,1.21.57,1.92,1.76,1.92,3.01,0,.47-.1.95-.31,1.4ZM150.44,190.3c-.47,0-.95-.1-1.41-.31-1.66-.77-2.38-2.75-1.61-4.41.57-1.21,1.76-1.92,3.02-1.92.47,0,.95.1,1.4.31,1.21.57,1.92,1.76,1.92,3.01,0,.47-.1.95-.31,1.41-.57,1.2-1.76,1.91-3.01,1.91Z"/>
      <path class="st0" d="M285.72,190.47c-5.95-16.45-21.55-27.9-39.26-27.9-13.71,0-24.58,6.86-31.01,17.6-.77,1.28-1.48,2.62-2.12,4.01-.19.41-.37.82-.54,1.24-.18.4-.34.81-.5,1.21-.16.41-.32.82-.47,1.24,0,0,0,.02,0,.02-.15.43-.3.85-.43,1.29-.14.43-.27.87-.4,1.3-.12.44-.25.89-.36,1.34-.09.35-.18.71-.26,1.06-.13.54-.26,1.09-.37,1.65h0c-.68,3.41-1.04,6.98-1.04,10.69,0,12.35,4.45,22.92,11.87,30.25.03.04.07.08.11.12.4.39.81.78,1.23,1.14.25.23.5.45.76.67.68.57,1.37,1.13,2.09,1.65.05.04.09.08.15.11.69.5,1.41.99,2.14,1.44.29.18.57.35.86.52.58.34,1.16.67,1.77.98.3.16.6.3.91.45.3.16.62.3.93.43.76.35,1.55.67,2.34.96.02,0,.02,0,.03,0,.16.05.31.11.47.16.37.14.75.26,1.13.39.3.1.61.19.91.28.31.09.61.18.92.26.31.08.61.16.93.23.31.08.62.15.94.22.32.08.63.14.95.19.32.06.64.12.96.17.32.05.64.1.97.15.64.09,1.3.17,1.96.23,1.32.13,2.67.19,4.05.19,2.14,0,4.24-.16,6.28-.46.29-.05.58-.09.87-.14h0c.99-.16,1.96-.37,2.93-.61.36-.09.73-.19,1.09-.29.3-.08.59-.16.88-.25.44-.13.87-.27,1.3-.42.43-.14.85-.3,1.28-.46.09-.03.19-.07.29-.11.13-.05.27-.11.4-.17.32-.12.63-.26.94-.39.03-.02.06-.02.09-.04.6-.26,1.19-.54,1.77-.82.04-.02.09-.04.13-.06.59-.29,1.16-.61,1.74-.92.02-.02.05-.03.09-.05.37-.21.74-.43,1.09-.65.37-.22.72-.44,1.08-.68.46-.3.92-.61,1.36-.95.26-.18.51-.37.77-.57.26-.19.51-.39.76-.59.5-.4.99-.82,1.47-1.25.24-.21.48-.43.71-.65.27-.25.54-.51.82-.78.04-.04.08-.08.11-.12,2.32-2.32,4.35-4.96,6.03-7.87.19-.31.37-.63.54-.96.24-.43.47-.85.68-1.3.46-.92.88-1.86,1.27-2.82.15-.36.29-.72.42-1.09,1.72-4.59,2.69-9.65,2.76-15.07h0c0-.24,0-.46,0-.69,0-5.21-.91-10.18-2.57-14.75ZM226.22,225.31c-.78,1.66-2.75,2.38-4.42,1.61-1.66-.78-2.38-2.75-1.6-4.42l20.74-44.49c.78-1.66,2.76-2.38,4.42-1.61,1.21.57,1.92,1.76,1.92,3.01,0,.47-.1.95-.31,1.4l-20.75,44.5ZM232.76,235.29c-1.66-.78-2.38-2.75-1.6-4.41l13.15-28.22c.78-1.66,2.75-2.38,4.41-1.61,1.21.57,1.92,1.76,1.92,3.01,0,.47-.1.95-.31,1.41l-13.15,28.21c-.78,1.66-2.75,2.38-4.42,1.61Z"/>
      <path class="st0" d="M213.32,184.18c-.19.41-.37.82-.54,1.24-.18.4-.34.81-.5,1.21-.16.41-.32.82-.47,1.24,0,0,0,.02,0,.02-.15.43-.3.85-.43,1.29-.14.43-.27.87-.4,1.3-.12.44-.25.89-.36,1.34-.09.35-.18.71-.26,1.06-.13.54-.26,1.09-.37,1.65h0c-.14-.09-.28-.17-.42-.26-.18-.12-.37-.23-.54-.34-.26-.16-.51-.32-.78-.47-.06-.04-.13-.08-.19-.12-.58-.33-1.16-.64-1.75-.95-.09-.04-.16-.09-.25-.12-.34-.17-.68-.33-1.02-.49-.34-.16-.69-.31-1.03-.46-3.49-1.48-7.21-2.44-11.03-2.77-3.32-.28-6.45-.07-9.39.58-.28.05-.56.12-.83.19-.47.12-.92.24-1.38.38-.46.14-.9.29-1.35.46-.44.16-.88.33-1.31.51h0c-.11-.47-.22-.91-.34-1.35-.25-.9-.52-1.78-.83-2.65-.14-.39-.28-.78-.43-1.16-.33-.84-.68-1.66-1.08-2.47-.16-.34-.33-.68-.5-1.01-.28-.54-.57-1.08-.88-1.61,7.43-2.82,22.47-6.17,38.27,3.96.15-.08.3-.16.43-.23Z"/>
      <path class="st0" d="M332.9,192.39c-.02.34-.04.68-.06,1.01-.5,7.95-1.37,13.1-1.45,13.53h0s0,0,0,0l-43.11-1.03-24.47-.58,5.86-15.52,16.04.65,45.74,1.86,1.28.05h.17Z"/>
    </g>
  </g>
</svg>